<?xml version="1.0" encoding="utf-8"?>
<!-- Generator: Adobe Illustrator 22.1.0, SVG Export Plug-In . SVG Version: 6.00 Build 0)  -->
<svg version="1.1" xmlns="http://www.w3.org/2000/svg" xmlns:xlink="http://www.w3.org/1999/xlink" x="0px" y="0px"
	 viewBox="0 0 495 495" style="enable-background:new 0 0 495 495;" xml:space="preserve">
<style type="text/css">
	.st0{fill:#565F47;}
	.st1{fill:#FAFAFA;}
	.st2{fill:#C6B28D;}
</style>
<g id="cart">
	<g>
		<circle class="st0" cx="290.5" cy="326.2" r="22.3"/>
		<circle class="st0" cx="201.2" cy="326.2" r="22.3"/>
	</g>
	<path class="st0" d="M329.6,180.3c-0.8-1-2.1-1.5-3.3-1.5H165.5c-2.5,0-4.5,2-4.5,4.5c0,0.3,0,0.6,0.1,0.9l17.9,89.3
		c0.4,2.1,2.3,3.6,4.4,3.6c0.2,0,0.4,0,0.6,0l134-17.9c2-0.3,3.6-1.9,3.8-3.9l8.9-71.5C330.9,182.6,330.5,181.3,329.6,180.3z"/>
	<path class="st0" d="M308.4,294.9H205.3c-14.9,0-27.7-10.5-30.7-25.1l-21.8-108.9h-23.1c-2.5,0-4.5-2-4.5-4.5s2-4.5,4.5-4.5h26.8
		c2.1,0,4,1.5,4.4,3.6L183.4,268c2.1,10.4,11.3,17.9,21.9,18h103.1c2.5,0,4.5,2,4.5,4.5S310.9,294.9,308.4,294.9z"/>
</g>
<g id="mid">
	<g>
		<path class="st1" d="M201.2,259.2c-2.2,0-4-1.6-4.4-3.7l-8.9-53.6c-0.3-2.4,1.4-4.7,3.8-5c2.3-0.3,4.5,1.2,5,3.6l8.9,53.6
			c0.4,2.4-1.2,4.7-3.7,5.1C201.7,259.2,201.4,259.2,201.2,259.2z"/>
		<path class="st1" d="M223.5,254.7c-2.3,0-4.3-1.8-4.5-4.1l-4.5-49.1c-0.2-2.5,1.6-4.6,4-4.9l0,0c2.5-0.2,4.6,1.6,4.9,4l0,0
			l4.5,49.1c0.2,2.5-1.6,4.6-4,4.9l0,0L223.5,254.7z"/>
		<path class="st1" d="M245.9,250.3c-2.5,0-4.5-2-4.5-4.5v-44.7c0-2.5,2-4.5,4.5-4.5s4.5,2,4.5,4.5v44.7
			C250.3,248.3,248.3,250.3,245.9,250.3z"/>
		<path class="st1" d="M268.2,245.8h-0.5c-2.5-0.3-4.2-2.5-4-4.9l0,0l4.5-40.2c0.3-2.5,2.5-4.2,5-4c2.5,0.3,4.2,2.5,3.9,4.9l0,0
			l-4.5,40.2C272.4,244.1,270.5,245.8,268.2,245.8z"/>
		<path class="st1" d="M290.5,241.3c-2.5,0-4.5-2-4.5-4.5c0-0.4,0-0.7,0.1-1.1L295,200c0.5-2.4,2.9-3.9,5.3-3.4s3.9,2.9,3.4,5.3
			c0,0.1,0,0.1-0.1,0.2l-8.9,35.7C294.4,239.9,292.6,241.3,290.5,241.3z"/>
	</g>
</g>
<g id="right">
	<polygon class="st0" points="247.5,0 247.5,40 455,40 455,455 247.5,455 247.5,495 495,495 495,0 	"/>
</g>
<g id="left">
	<polygon class="st2" points="40,455 40,40 247.5,40 247.5,0 0,0 0,495 247.5,495 247.5,455 	"/>
</g>
</svg>
