<svg xmlns="http://www.w3.org/2000/svg" viewBox="0 0 495 495">
  <title>shop_Artboard 1</title>
  
  <g id="ebay">
    <path d="M131.3,286.5c34,0,36.2-22.4,36.2-22.4H151s-3.5,12-20.7,12c-14,0-24-9.4-24-22.7h62.9v18.7c0,5-.3,12-.3,12h15.7s.5-5,.5-9.6c0,0,7.8,12.1,28.9,12.1,18,0,31.3-10.1,35.7-25.7a20.9,20.9,0,0,0-.1,2.5c0,15.1,12.6,23.4,29.7,23.4,23.3,0,30.8-12.9,30.8-12.9,0,5.1.4,10.2.4,10.2h14.8s-.6-6.2-.6-10.3V239.2a31,31,0,0,0-2.1-11.7l30,56.3-14.1,26.7h17.8l48.8-95.8H388.2l-26.8,53.8-26.9-53.8H315.8l4.8,9c-6.3-9.4-18.8-11.8-30.3-11.8-33.4,0-35.6,18.3-35.6,21.2h16.6s.9-10.7,17.8-10.7c11,0,19.5,5.1,19.5,14.7v3.5H289c-21.6,0-34.7,5.3-38.5,16a44.35,44.35,0,0,0,.6-7.4c0-20.6-13.9-37.1-37.2-37.1-21.9,0-28.7,11.8-28.7,11.8V184.3H169.1v60.2c-.2-13.1-8.7-32.7-38.4-32.7-22.2,0-40.7,9.4-40.7,37.9C90,272.3,102.5,286.5,131.3,286.5ZM308.6,251v4.6c0,6-3.7,20.9-25.4,20.9-11.9,0-17-5.9-17-12.8C266.1,251,283.3,251,308.6,251Zm-98.7-28c15.1,0,24.7,11.2,24.7,26.2,0,16.1-11.1,26.7-24.6,26.7-16.1,0-24.8-12.6-24.8-26.5C185.2,236.4,193,223,209.9,223Zm-79.7-.4c13.3,0,22.4,8.1,22.4,20.3H106.7C106.6,229.9,118.5,222.6,130.2,222.6Z" fill="#565f47"/>
  </g>
  <g id="left">
    <polygon points="247.5 0 247.5 40 455 40 455 455 247.5 455 247.5 495 495 495 495 0 247.5 0" fill="#565f47"/>
  </g>
  <g id="right">
    <polygon points="40 455 40 40 247.5 40 247.5 0 0 0 0 495 247.5 495 247.5 455 40 455" fill="#c6b28d"/>
  </g>
</svg>
