<svg xmlns="http://www.w3.org/2000/svg" viewBox="0 0 495 495"><title>shop_Artboard 1</title><g id="back"><path d="M402.5,247.5v1.3c0,.37,0,1.76,0,2.76,0,.61-.06,1,0,1.54,0,.1-.07.83-.07.93,0,.44-.1,2.27-.2,3.57-.4,5.9-2.8,11.2-5.8,16.2a60.55,60.55,0,0,1-12.6,14.6c-8.3,7.3-17.8,12.6-27.8,17.2a240,240,0,0,1-36.8,13c-10.1,2.8-20.2,5.1-30.4,7.1-10.9,2.1-21.9,3.9-32.9,5.4-8.2,1.1-16.5,2.1-24.7,3-5,.5-10.1,1-15.1,1.4-5.9.5-11.9,1-17.8,1.4-3.3.3-6.6.4-9.8.6-5.3.4-10.6.5-15.9.9-1.8.1-3.5.2-5.3.2-3.3.1-6.7.3-10,.4-5.8.2-11.7.2-17.5.3-16,.3-31.9.2-47.9.3-.9,0-1.3-.2-1.2-1.1V163a4.33,4.33,0,0,1,.1-1.6h3.4c2.2.3,4.3,0,6.5.1h19.8c6.1-.1,12.3.1,18.4.2q8.25,0,16.5.3c5.9.2,11.7.4,17.6.7,4.5.2,9.1.4,13.6.8,6.7.5,13.4.9,20,1.4,5.5.5,11,.9,16.5,1.4,6,.6,12,1.2,18,1.9,7.6.9,15.1,1.9,22.6,3,11,1.6,21.9,3.5,32.8,5.9,8.8,1.9,17.6,4,26.3,6.5a231.82,231.82,0,0,1,32.4,11.7,139.85,139.85,0,0,1,19.7,10.8,77.21,77.21,0,0,1,18.9,17.6,43.81,43.81,0,0,1,7.8,16.8" /></g><g id="white"><path d="M402.3,251.6c.1-1-.3-1.9.2-2.9v2.9C402.4,251.8,402.4,251.8,402.3,251.6Zm0,0h.2v1.6C402,252.7,402.3,252.2,402.3,251.6ZM317,245.7c.1-2.3-.2-4.6-.2-6.8,0-6.9-.1-13.8,0-20.6,0-1.1-.2-1.4-1.4-1.4-1.7.1-3.5,0-5.2,0-1.2,0-1.7-.6-1.7-1.8v-4.3c0-1.1.5-1.7,1.6-1.7h25.3a10.87,10.87,0,0,1,1.8.1,1.24,1.24,0,0,1,1.2,1.3v5.1c0,1-.6,1.4-1.5,1.4-1.9,0-3.7.1-5.6,0-1.2-.1-1.4.4-1.4,1.5,0,13.7,0,27.4.1,41.2a11.93,11.93,0,0,1-.5,2.6c-.2.6-.7.7-1.2.8-3.3.2-6.6.1-9.9,0a1.11,1.11,0,0,1-1-.5c-6.3-8.3-13.1-16.3-19.7-24.5-3.2-4-6.6-7.9-8.6-12.8,0-.1-.2-.2-.2-.3-.5.1-.3.5-.3.8,1.1,7.6.6,15.2.7,22.8v5.8c0,.9.2,1.2,1.1,1.2,1.8-.1,3.5,0,5.3,0,1.3,0,1.8.6,1.8,1.8v4.2c0,1.3-.6,1.8-1.8,1.8H270.3c-2.5,0-2.7-.2-2.7-2.7v-3.4a1.49,1.49,0,0,1,1.7-1.7c1.9,0,3.9-.1,5.8,0,.9,0,1.1-.3,1.1-1.1V218.2c0-.9-.3-1.2-1.2-1.1-1.9.1-3.7,0-5.6,0-1.5,0-1.8-.4-1.8-1.9v-3.4c0-2.2.3-2.5,2.6-2.5h17.5a3.34,3.34,0,0,1,3.2,1.6c2.8,3.9,5.9,7.5,8.9,11.3,3.8,4.9,7.8,9.6,11.4,14.6a58.45,58.45,0,0,1,5.3,8.6C316.5,245.3,316.6,245.6,317,245.7Zm-81.6-12.9V218.3c0-1.2-.3-1.5-1.5-1.4-1.7.1-3.4,0-5.1,0-1.2,0-1.7-.5-1.7-1.7v-4.4a1.44,1.44,0,0,1,1.5-1.6,8.08,8.08,0,0,1,1.6-.1h27.6c1.5.1,1.9.5,1.9,2V215c0,1.5-.4,1.9-1.9,1.9-1.8,0-3.6.1-5.5,0-1,0-1.2.3-1.2,1.2v26.1a25.64,25.64,0,0,1-.9,7.3c-1.6,5.3-5.3,8.4-10.4,10.2-6.1,2.1-12.5,2.4-19,2.2a45,45,0,0,1-14.5-2.4c-6.9-2.6-10.7-7.8-10.8-15.2-.1-9.3-.1-18.6-.1-27.9,0-1.2-.3-1.6-1.5-1.5-1.8.1-3.6,0-5.5,0-1.1,0-1.7-.5-1.6-1.7v-4.4c0-1.2.6-1.6,1.6-1.7H216a9.15,9.15,0,0,1,1.6.1,1.55,1.55,0,0,1,1.6,1.7v4.5a1.33,1.33,0,0,1-1.5,1.5c-1.9,0-3.8.1-5.7,0-.7,0-1,.2-1,.9,0,9.6,0,19.2.1,28.8.1,5.3,2.4,7.8,7.6,8.8a25,25,0,0,0,10.2-.2c4.1-.9,6.2-3.4,6.3-7.6.1-4.9,0-9.9,0-14.8ZM163.9,234h13.9c2.4,0,2.7.3,2.7,2.7v3.4c0,1.2-.5,1.8-1.7,1.8-1.8,0-3.6.1-5.5,0-.8,0-1.1.2-1.1,1.1,0,4.6,0,9.3.1,13.9a3.22,3.22,0,0,1-1.9,3.2,32.05,32.05,0,0,1-9.7,2.9,58.66,58.66,0,0,1-22.1.1c-8.6-1.7-15.3-5.9-18.6-14.4a38.34,38.34,0,0,1,.6-26.1c3.5-7.7,9.8-11.7,17.8-13.4a59.09,59.09,0,0,1,27.4,1.1,4.87,4.87,0,0,1,1.1.4c3.3,1.2,3.5,1.6,3.5,5.1v7.3c0,1.6-.2,1.8-1.8,1.9-3.1.1-6.1,0-9.2,0-1.1,0-1.5-.5-1.5-1.6v-4.9c0-.5,0-1-.7-1.1-4.3-.9-8.6-1.3-13-.1-5.1,1.5-7.8,5.2-8.9,10.2a39.53,39.53,0,0,0,.1,18.1c1.4,5.8,5.1,9.1,11,9.9a24.8,24.8,0,0,0,10.8-.8,1.36,1.36,0,0,0,1.2-1.5q-.15-4.95,0-9.9c0-.9-.3-1.2-1.2-1.2h-7.8c-1.9,0-2.1-.4-2.1-2.2v-3.5c0-1.6.3-2,2-2.1h1.3C155,234,159.4,234,163.9,234Zm158,52.1c.9-3.8,2.4-7.5,3.5-11.2.4-1.2,1-1.8,2.3-1.7a36.84,36.84,0,0,0,4.7,0c.9,0,1.3.3,1.2,1.2v.9c.1.9-.3,1.3-1.2,1.1s-1.3.2-1.2,1.3c.4,4.7.7,9.5.9,14.2.1,1,.4,1.3,1.4,1.2,1.3-.1,1.3.1.9,1.3a2.9,2.9,0,0,1-3.5,2.3,32.46,32.46,0,0,0-5.4,0c-.8,0-1.1-.2-1.1-1v-1q-.15-1.35,1.2-1.2c1,.2,1.3-.2,1.3-1.3-.2-4-.4-7.9-.3-12a1.74,1.74,0,0,0-.5,1.4c-.5,3.4-1.9,6.6-2.7,9.9-.1.4-.3.5-.7.6-2.5.4-2.9.1-3.7-2.3-1-3.1-2-6.2-2.9-9.5,0,.3-.1.5-.1.8v11.3c0,.9.3,1.3,1.2,1.1,1.8-.3,1.2,1,1.3,1.9s-.3,1.3-1.3,1.3c-2.2-.1-4.5-.1-6.7,0-1,0-1.3-.3-1.2-1.3v-.8c-.1-.9.2-1.3,1.1-1.2,1.1.2,1.4-.3,1.4-1.3l.6-14.4c0-.9-.2-1.1-1.1-1.1-.5,0-1.2.3-1.4-.4a5.7,5.7,0,0,1,0-2.6c.1-.3.5-.2.8-.2h6.1c.6,0,.8.2,1,.8,1.3,3.8,3.1,7.5,3.9,11.5C321.6,286,321.7,286,321.9,286.1Zm-186.2-2.2c3.4,1.5,4.7,3.3,4.4,6.4-.3,3.5-2.2,5.4-5.9,5.9-4,.5-8.1.2-12.2.2-.5,0-.8-.2-.8-.8v-1.3c-.1-.9.2-1.3,1.1-1.2,1.1.2,1.4-.3,1.3-1.4-.1-4.8,0-9.5,0-14.3,0-.8-.1-1.2-1-1.1-.6,0-1.4.3-1.5-.9,0-1.8.4-3,1.3-3,4,.1,8-.4,11.9.3s5.7,3.6,4.8,7.2a5,5,0,0,1-2.3,3A2.13,2.13,0,0,1,135.7,283.9Zm102.6-10.6a57.07,57.07,0,0,1,5.8.1c3.4.3,5.5,2,6.1,4.9.8,3.4-.3,6.1-3.3,7.8-.8.4-.6.7-.2,1.2,1.1,1.7,2.2,3.3,3.2,5,.6.9,1.2,1.5,2.4,1.3a.72.72,0,0,1,.8.2c.3.4-.2.5-.4.6a.76.76,0,0,0-.2.5c.3,1.7-.8,1.5-1.9,1.6-3,.5-4.8-.6-5.8-3.4a55.2,55.2,0,0,0-2.8-5.4,1.33,1.33,0,0,0-1.8-.8c-.9.1-.4.9-.5,1.4-.1,1.3,0,2.7,0,4,0,.8.3,1,1,1,.5,0,1.3-.3,1.4.5a4.27,4.27,0,0,1-.1,2.5c-.2.4-.6.2-1,.2h-7.8c-.8,0-1.2-.3-1.1-1.1v-1c-.1-.9.3-1.2,1.1-1.1,1.3.2,1.5-.4,1.5-1.5-.1-4.7-.1-9.3,0-14,0-1-.3-1.4-1.2-1.2-1.7.3-1.2-1-1.3-1.9-.1-1.2.4-1.4,1.4-1.3C235.1,273.3,236.5,273.3,238.3,273.3Zm-88.7,0c2.1.1,4.6-.2,7,.4a5.83,5.83,0,0,1,4.9,5.2c.4,3.2-.6,5.7-3.2,7-.9.5-.9.8-.4,1.6,1.1,1.6,2.1,3.2,3.1,4.8.6.9,1.1,1.6,2.3,1.4.3-.1.8-.1.9.2s-.3.4-.5.6a.44.44,0,0,0-.1.5c.3,1.6-.7,1.4-1.8,1.6-3.1.5-4.9-.6-6-3.6-.7-1.8-1.9-3.5-2.8-5.3-.4-.9-1.1-.9-1.8-.8s-.4.8-.4,1.3c-.1,1.3,0,2.7,0,4,0,.8.2,1.2,1.1,1.1,1.6-.3,1.4.9,1.4,1.8.1,1.2-.4,1.5-1.5,1.4-2.4-.1-4.8-.1-7.1,0-1,0-1.6-.2-1.4-1.4v-.6c-.1-.9.2-1.4,1.2-1.3s1.4-.3,1.4-1.4c-.1-4.7,0-9.4,0-14.1,0-.9-.2-1.4-1.2-1.2-1.7.3-1.2-1-1.3-1.9-.1-1.1.3-1.4,1.4-1.4C146.2,273.3,147.7,273.3,149.6,273.3Zm46.9,13.6v6c0,.9.6.8,1.2.7,1.8-.2,1.2,1.1,1.3,1.9.1,1-.3,1.3-1.3,1.3q-3.9-.15-7.8,0c-.9,0-1.3-.2-1.3-1.2,0-1.8,0-1.8,1.8-2,.6,0,.7-.3.7-.8V277.5c0-.7-.4-.7-.9-.7s-1.3.4-1.5-.3a5.7,5.7,0,0,1,0-2.6c.1-.4.6-.3.9-.3h8.3c.7,0,1.1.2,1,.9v1.2c.1.9-.3,1.2-1.1,1.1-1.2-.2-1.4.4-1.4,1.4.1,1.8,0,3.5,0,5.7,1.7-2.2,3.2-4.1,4.7-5.9a17.1,17.1,0,0,1,1.1-1.4c2.4-3.1,2.4-3,6.3-2.9.8,0,1.1.2,1.1,1v1.2c.1.8-.3,1.1-1.1,1a2.36,2.36,0,0,0-2.4,1.1c-1.7,2.2-3.5,4.3-5.3,6.4-.5.5-.4.9,0,1.4,2.3,2.5,4.5,5.1,6.7,7.6.2.3.4.7.8.6,2.3-.4,1.3,1.6,1.8,2.4.2.4-.2.5-.5.5h-4.3c-.6,0-.9-.5-1.2-.9-2.5-3-5-6.1-7.5-9.1Zm-11.4-1.8a20.07,20.07,0,0,1-1.3,7.3,8.12,8.12,0,0,1-7.5,5.2c-3.5.1-6.5-1.1-8-4.4a18.77,18.77,0,0,1-.1-16.2c1.4-3.1,4.1-4.4,7.5-4.4a8,8,0,0,1,7.6,4.3C184.8,279.4,185,282.3,185.1,285.1Zm101-.1a17.48,17.48,0,0,1,1.3-7.5,8,8,0,0,1,7.3-4.9c3.6-.2,6.5,1.1,8.1,4.3a18.32,18.32,0,0,1,0,16.3c-1.5,3.1-4.2,4.4-7.5,4.4a8,8,0,0,1-7.5-4.4A16.83,16.83,0,0,1,286.1,285Zm-65.6-11.3h7c.8,0,1.2.2,1.2,1.1-.1,1.6,0,3.1,0,4.7,0,.8-.3,1.1-1.1,1.1h-.8c-2,0-2,0-2.1-1.9,0-.8-.3-.9-1-.9-3.7-.1-3.7-.1-3.7,3.6,0,2.2,0,2.2,2.2,2.2h4c.7,0,1,.3,1,1-.1,3.1.4,2.6-2.5,2.6h-3.6c-.7,0-1.1.1-1.1,1a38.44,38.44,0,0,1,0,4.8c0,.8.3,1,1.1,1a20.83,20.83,0,0,1,2.5,0c.8.1,1.3-.2,1.1-1.1v-1c-.1-.9.3-1.2,1.2-1.2,2.7,0,2.7,0,2.7,2.7a22.55,22.55,0,0,0,0,2.6c.1.9-.3,1.2-1.2,1.1-4.7,0-9.3-.1-14,0-1.2,0-1.3-.5-1.2-1.4s-.5-2,1.1-1.8c1.2.2,1.4-.3,1.4-1.4q-.15-7,0-14.1c0-.9-.2-1.4-1.2-1.2-1.6.3-1.3-.8-1.4-1.7-.1-1.1.2-1.5,1.4-1.5A55.43,55.43,0,0,1,220.5,273.7Zm50.9,10.8a40.45,40.45,0,0,0,.4,4.9c.7,3.3,3.2,5,6.5,4.3.4-.1.5-.2.5-.6v-.6c.1-.8-.4-2,.3-2.5,1-.6,2.3-.2,3.4-.2.6,0,.6.5.6,1v3.9a2.05,2.05,0,0,1-1.4,1.8,12.29,12.29,0,0,1-10.9-.2,8.14,8.14,0,0,1-3.9-5.6,21.31,21.31,0,0,1-.2-9.4c1.3-6.6,6-9.5,12.7-8a1.42,1.42,0,0,1,.6.2c2.6.7,2.7.9,2.7,3.5v.6c0,2.9-.7,3.4-3.6,2.8a.66.66,0,0,1-.6-.7v-1c0-2.2-.1-2.3-2.3-2.2-2.4.1-3.7,1.1-4.4,3.5A32.73,32.73,0,0,0,271.4,284.5Zm-12.1,6.6a3.21,3.21,0,1,1-3.5,3.2C255.7,292.7,257.4,291.1,259.3,291.1Z" /></g><g id="green"><path d="M129.1,290.1v-.6c.2-.9-.5-2,.4-2.6s4.3.2,5,1a3.94,3.94,0,0,1,.3,3.8,2,2,0,0,1-.9.9l-.6.3a5.88,5.88,0,0,1-3.9.2C128.5,292.6,129.2,291,129.1,290.1Z" /><path d="M129.1,279.9a2.72,2.72,0,0,1,0-.9c.2-.7-.7-1.9.6-2.1,2.2-.4,4,.5,4.2,2,.2,1.2.2,2.4-.8,3.2s-2.4.8-3.7.7c-.4,0-.4-.4-.4-.7A16.2,16.2,0,0,0,129.1,279.9Z" /><path d="M240,280.5a3.35,3.35,0,0,1,0-1c.2-.7-.6-1.9.6-2.2,1.8-.5,3.9.2,4.4,1.4a4.21,4.21,0,0,1-.3,4.2c-.6.8-3.2,1.5-4.2,1.2-.5-.1-.4-.5-.4-.8A27.15,27.15,0,0,1,240,280.5Z" /><path d="M151.2,280.6v-1.5c0-1.9,0-1.9,2-1.8,2.5.1,3.4.9,3.4,3.1s-.9,3.3-3.3,3.6a2.2,2.2,0,0,0-.8.1c-.9.2-1.5-.1-1.3-1.2Z" /><path d="M179.7,285.7a13.68,13.68,0,0,1-.3,4.5,6.82,6.82,0,0,1-1.2,2.6,3,3,0,0,1-5-.4,8.75,8.75,0,0,1-1.1-3.8,24.24,24.24,0,0,1,.4-8.5,7,7,0,0,1,.8-2,3,3,0,0,1,5.3.1,12.09,12.09,0,0,1,1.2,5.3A16.2,16.2,0,0,0,179.7,285.7Z" /><path d="M299.3,285.3a17.53,17.53,0,0,1-.4,4.5,17.23,17.23,0,0,1-.7,2.1,3,3,0,0,1-2.9,2.1,3.12,3.12,0,0,1-3-2.1,14.28,14.28,0,0,1-.9-4.2,24.93,24.93,0,0,1,.4-7.2,8.64,8.64,0,0,1,.7-2.1,3,3,0,0,1,2.9-1.9,2.93,2.93,0,0,1,2.7,1.9C299.2,280.5,299.2,282.8,299.3,285.3Z" /></g><g id="right"><polygon points="247.5 0 247.5 40 455 40 455 455 247.5 455 247.5 495 495 495 495 0 247.5 0" /></g><g id="left"><polygon points="40 455 40 40 247.5 40 247.5 0 0 0 0 495 247.5 495 247.5 455 40 455" /></g></svg>
