<?xml version="1.0" encoding="utf-8"?>
<!-- Generator: Adobe Illustrator 22.1.0, SVG Export Plug-In . SVG Version: 6.00 Build 0)  -->
<svg version="1.1" id="Layer_1" xmlns="http://www.w3.org/2000/svg" xmlns:xlink="http://www.w3.org/1999/xlink" x="0px" y="0px"
	 viewBox="0 0 700 700" style="enable-background:new 0 0 700 700;" xml:space="preserve">
<style type="text/css">
	.st0{fill:#3A4050;}
</style>
<g>
	<g>
		<path class="st0" d="M30.3,629c10.8-18.7,21.6-37.4,32.4-56.1c25.9-44.9,51.9-89.8,77.8-134.7c31.4-54.3,62.7-108.7,94.1-163
			c27.1-47,54.3-94,81.4-141c9-15.5,18-31.1,26.9-46.6c2.8-4.8,5.5-9.6,8.3-14.4c1.3-2.2,3.8-5.1,4.4-7.6c0.1-0.3,0.4-0.7,0.6-1
			c-2.2,0-4.4,0-6.6,0c10.8,18.7,21.6,37.4,32.4,56.1c25.9,44.9,51.9,89.8,77.8,134.7c31.4,54.3,62.7,108.7,94.1,163
			c27.1,47,54.3,94,81.4,141c9,15.5,18,31.1,26.9,46.6c2.8,4.8,5.5,9.6,8.3,14.4c1.3,2.2,2.5,5.8,4.4,7.6c0.2,0.2,0.4,0.7,0.6,1
			c1.1-1.9,2.2-3.8,3.3-5.8c-21.6,0-43.2,0-64.8,0c-51.9,0-103.7,0-155.6,0c-62.7,0-125.5,0-188.2,0c-54.3,0-108.5,0-162.8,0
			c-18,0-35.9,0-53.9,0c-8.3,0-17-0.7-25.4,0c-0.4,0-0.8,0-1.1,0c-4.9,0-4.9,7.7,0,7.7c21.6,0,43.2,0,64.8,0c51.9,0,103.7,0,155.6,0
			c62.7,0,125.5,0,188.2,0c54.3,0,108.5,0,162.8,0c18,0,35.9,0,53.9,0c8.3,0,17,0.7,25.4,0c0.4,0,0.8,0,1.1,0c2.9,0,4.8-3.3,3.3-5.8
			c-10.8-18.7-21.6-37.4-32.4-56.1c-25.9-44.9-51.9-89.8-77.8-134.7c-31.4-54.3-62.7-108.7-94.1-163c-27.1-47-54.3-94-81.4-141
			c-9-15.5-18-31.1-26.9-46.6c-4.2-7.2-7.9-15.1-12.7-22c-0.2-0.3-0.4-0.7-0.6-1c-1.4-2.5-5.2-2.5-6.6,0
			c-10.8,18.7-21.6,37.4-32.4,56.1c-25.9,44.9-51.9,89.8-77.8,134.7c-31.4,54.3-62.7,108.7-94.1,163c-27.1,47-54.3,94-81.4,141
			c-9,15.5-18,31.1-26.9,46.6c-4.2,7.2-9.1,14.4-12.7,22c-0.2,0.3-0.4,0.7-0.6,1C21.2,629.4,27.9,633.3,30.3,629z"/>
		<path class="st0" d="M64.9,609c9.6-16.6,19.2-33.3,28.8-49.9c23.2-40.2,46.4-80.4,69.7-120.7c28-48.5,56-96.9,84-145.4
			c24.3-42.1,48.6-84.2,72.9-126.3c8-13.8,16-27.6,23.9-41.5c2.5-4.3,5-8.7,7.5-13c1.1-1.9,3.4-4.6,3.9-6.7c0.1-0.3,0.4-0.6,0.5-0.9
			c-2.2,0-4.4,0-6.6,0c9.6,16.6,19.2,33.3,28.8,49.9c23.2,40.2,46.4,80.4,69.7,120.7c28,48.5,56,96.9,84,145.4
			c24.3,42.1,48.6,84.2,72.9,126.3c8,13.8,16,27.6,23.9,41.5c2.5,4.3,5,8.7,7.5,13c1.1,1.9,2.2,5.2,3.9,6.7c0.2,0.2,0.4,0.6,0.5,0.9
			c1.1-1.9,2.2-3.8,3.3-5.8c-19.2,0-38.4,0-57.7,0c-46.4,0-92.9,0-139.3,0c-56,0-111.9,0-167.9,0c-48.6,0-97.3,0-145.9,0
			c-16,0-31.9,0-47.9,0c-7.4,0-15.5-0.9-22.8,0c-0.3,0-0.7,0-1,0c-4.9,0-4.9,7.7,0,7.7c19.2,0,38.4,0,57.7,0c46.4,0,92.9,0,139.3,0
			c56,0,111.9,0,167.9,0c48.6,0,97.3,0,145.9,0c16,0,31.9,0,47.9,0c7.4,0,15.5,0.9,22.8,0c0.3,0,0.7,0,1,0c2.9,0,4.8-3.3,3.3-5.8
			c-9.6-16.6-19.2-33.3-28.8-49.9c-23.2-40.2-46.4-80.4-69.7-120.7c-28-48.5-56-96.9-84-145.4c-24.3-42.1-48.6-84.2-72.9-126.3
			c-8-13.8-16-27.6-23.9-41.5c-3.7-6.4-6.9-13.9-11.4-19.8c-0.2-0.3-0.3-0.6-0.5-0.9c-1.4-2.5-5.2-2.5-6.6,0
			c-9.6,16.6-19.2,33.3-28.8,49.9c-23.2,40.2-46.4,80.4-69.7,120.7c-28,48.5-56,96.9-84,145.4c-24.3,42.1-48.6,84.2-72.9,126.3
			c-8,13.8-16,27.6-23.9,41.5c-3.7,6.4-8.5,12.9-11.4,19.8c-0.1,0.3-0.3,0.6-0.5,0.9C55.8,609.4,62.5,613.3,64.9,609z"/>
		<g>
			<path class="st0" d="M218,374.8l-0.4,0.7c-0.4,0.7-0.6,1.6-0.4,2.4c0.2,0.8,0.7,1.5,1.4,1.9l22.1,12.7c0.5,0.3,1,0.4,1.5,0.4
				c1,0,2-0.5,2.6-1.5l0.4-0.7c0.4-0.7,0.6-1.6,0.4-2.4c-0.2-0.8-0.7-1.5-1.4-1.9l-22.1-12.7C220.7,372.9,218.9,373.3,218,374.8z"/>
			<path class="st0" d="M139,522.7c-0.4,0.7-0.4,1.6-0.1,2.4l0.3,0.8c0.5,1.2,1.6,2,2.9,2c0.3,0,0.7-0.1,1-0.2l25.1-8.4
				c0.8-0.3,1.4-0.8,1.8-1.6c0.4-0.7,0.4-1.6,0.1-2.4l-0.3-0.8c-0.6-1.6-2.3-2.4-3.9-1.9l-25.1,8.4C140,521.3,139.4,521.9,139,522.7
				z"/>
			<path class="st0" d="M216.6,452.4v-0.8c0-1.7-1.4-3.1-3.1-3.1H163c-1.7,0-3.1,1.4-3.1,3.1v0.8c0,1.7,1.4,3.1,3.1,3.1h50.6
				C215.3,455.5,216.6,454.1,216.6,452.4z"/>
			<path class="st0" d="M157.5,476.4c0.1,0,0.2,0,0.3,0l6-0.6c0.8-0.1,1.6-0.5,2.1-1.1c0.5-0.6,0.7-1.5,0.7-2.3l-0.1-0.8
				c-0.2-1.7-1.7-2.9-3.4-2.7l-6,0.6c-0.8,0.1-1.6,0.5-2.1,1.1c-0.5,0.6-0.7,1.5-0.7,2.3l0.1,0.8C154.6,475.2,156,476.4,157.5,476.4
				z"/>
			<path class="st0" d="M215.8,397.8l-0.3,0.8c-0.3,0.8-0.3,1.6,0,2.4c0.3,0.8,0.9,1.4,1.7,1.7l19.5,7.5c0.4,0.1,0.7,0.2,1.1,0.2
				c1.2,0,2.3-0.7,2.8-1.9l0.3-0.8c0.3-0.8,0.3-1.6,0-2.4c-0.3-0.8-0.9-1.4-1.7-1.7l-19.5-7.5C218.2,395.5,216.5,396.2,215.8,397.8z
				"/>
			<path class="st0" d="M182,511.4c0.5,1.2,1.6,2,2.9,2c0.3,0,0.7-0.1,1-0.2l29.9-10.1c0.8-0.3,1.4-0.8,1.8-1.6
				c0.4-0.7,0.4-1.6,0.1-2.4l-0.3-0.8c-0.6-1.6-2.3-2.4-3.9-1.9l-29.9,10c-0.8,0.3-1.4,0.8-1.8,1.6c-0.4,0.7-0.4,1.6-0.1,2.4
				L182,511.4z"/>
			<path class="st0" d="M245,366.4c0.8,0,1.7-0.3,2.3-1l0.6-0.6c0.6-0.6,0.8-1.4,0.8-2.3c-0.1-0.8-0.5-1.6-1.1-2.1l-9.1-7.6
				c-1.3-1.1-3.1-0.9-4.2,0.3l-0.6,0.6c-0.6,0.6-0.8,1.4-0.8,2.3c0.1,0.8,0.5,1.6,1.1,2.1l9.1,7.6
				C243.6,366.2,244.3,366.4,245,366.4z"/>
			<path class="st0" d="M357.7,220.1c0-1.7-1.4-3.1-3.1-3.1h-0.9c-1.7,0-3.1,1.4-3.1,3.1v10.7c0,1.7,1.4,3.1,3.1,3.1h0.9
				c1.7,0,3.1-1.4,3.1-3.1V220.1z"/>
			<path class="st0" d="M253.3,525.4c0.2-0.8,0-1.7-0.5-2.3l-0.5-0.7c-0.9-1.4-2.8-1.7-4.2-0.8l-11,7.1c-0.7,0.5-1.2,1.2-1.3,2
				c-0.2,0.8,0,1.7,0.5,2.3l0.5,0.7c0.6,0.9,1.5,1.3,2.5,1.3c0.6,0,1.2-0.2,1.7-0.5l11-7.1C252.6,526.9,253.1,526.2,253.3,525.4z"/>
			<path class="st0" d="M254.1,502.5c0.3-0.8,0.2-1.6-0.1-2.4l-0.4-0.7c-0.7-1.5-2.5-2.1-4-1.5l-59.9,26.7c-0.8,0.3-1.3,1-1.6,1.7
				c-0.3,0.8-0.2,1.6,0.1,2.4l0.4,0.7c0.5,1.1,1.6,1.7,2.8,1.7c0.4,0,0.8-0.1,1.2-0.3l59.9-26.7
				C253.3,503.9,253.8,503.3,254.1,502.5z"/>
			<path class="st0" d="M268.5,387.8c0.6,0.5,1.3,0.7,2,0.7c0.8,0,1.7-0.3,2.3-1l0.6-0.6c0.6-0.6,0.8-1.4,0.8-2.3
				c-0.1-0.8-0.5-1.6-1.1-2.1l-8.4-6.9c-1.3-1.1-3.1-0.9-4.2,0.3l-0.6,0.6c-0.6,0.6-0.8,1.4-0.8,2.3c0.1,0.8,0.5,1.6,1.1,2.1
				L268.5,387.8z"/>
			<path class="st0" d="M260.9,559.5c0.6,0.5,1.3,0.7,2,0.7c0.8,0,1.7-0.3,2.3-1l13.7-15.3c0.6-0.6,0.8-1.4,0.8-2.3
				c-0.1-0.8-0.5-1.6-1.1-2.1l-0.6-0.5c-1.3-1.1-3.1-0.9-4.2,0.3l-13.7,15.3c-0.6,0.6-0.8,1.4-0.8,2.3c0.1,0.8,0.5,1.6,1.1,2.1
				L260.9,559.5z"/>
			<path class="st0" d="M354.6,258.3h-0.9c-1.7,0-3.1,1.4-3.1,3.1v18.2c0,1.7,1.4,3.1,3.1,3.1h0.9c1.7,0,3.1-1.4,3.1-3.1v-18.2
				C357.7,259.7,356.3,258.3,354.6,258.3z"/>
			<path class="st0" d="M280.8,369.3c0.1-0.8-0.2-1.7-0.7-2.3l-16-18.3c-1.1-1.2-3-1.4-4.2-0.4l-0.7,0.5c-0.6,0.5-1.1,1.3-1.1,2.1
				c-0.1,0.8,0.2,1.7,0.7,2.3l16,18.3c0.6,0.7,1.5,1,2.3,1c0.7,0,1.4-0.2,1.9-0.7l0.7-0.5C280.3,370.9,280.7,370.1,280.8,369.3z"/>
			<path class="st0" d="M184.4,563.9c0.6,0.9,1.5,1.3,2.5,1.3c0.6,0,1.2-0.2,1.7-0.5l5-3.2c0.7-0.5,1.2-1.2,1.3-2
				c0.2-0.8,0-1.7-0.5-2.3l-0.5-0.7c-0.9-1.4-2.8-1.7-4.2-0.8l-5,3.2c-0.7,0.5-1.2,1.2-1.3,2c-0.2,0.8,0,1.7,0.5,2.3L184.4,563.9z"
				/>
			<path class="st0" d="M227.9,596.4c0.6,0.5,1.3,0.7,2,0.7c0.8,0,1.7-0.3,2.3-1l12.3-13.7c0.6-0.6,0.8-1.4,0.8-2.3
				c-0.1-0.8-0.5-1.6-1.1-2.1l-0.6-0.5c-1.3-1.1-3.1-0.9-4.2,0.3l-12.3,13.7c-0.6,0.6-0.8,1.4-0.8,2.3s0.5,1.6,1.1,2.1L227.9,596.4z
				"/>
			<path class="st0" d="M207.6,551.8c0.6,0,1.2-0.2,1.7-0.5l16.4-10.6c0.7-0.5,1.2-1.2,1.3-2c0.2-0.8,0-1.7-0.5-2.3l-0.5-0.7
				c-0.9-1.4-2.8-1.7-4.2-0.8l-16.4,10.6c-0.7,0.5-1.2,1.2-1.3,2c-0.2,0.8,0,1.7,0.5,2.3l0.5,0.7
				C205.7,551.4,206.6,551.8,207.6,551.8z"/>
			<path class="st0" d="M171.3,491.5c0.3,1.4,1.6,2.4,3,2.4c0.2,0,0.4,0,0.6-0.1l57.1-11c0.8-0.2,1.5-0.6,2-1.3
				c0.5-0.7,0.6-1.5,0.5-2.3l-0.2-0.8c-0.3-1.6-1.9-2.7-3.6-2.4l-57.1,11c-0.8,0.2-1.5,0.6-2,1.3c-0.5,0.7-0.6,1.5-0.5,2.3
				L171.3,491.5z"/>
			<path class="st0" d="M340.4,342.9c0.1,0,0.2,0,0.3,0l0.9-0.1c0.8-0.1,1.6-0.5,2.1-1.1c0.5-0.6,0.7-1.5,0.7-2.3l-2.8-24.2
				c-0.2-1.7-1.7-2.9-3.4-2.7l-0.9,0.1c-0.8,0.1-1.6,0.5-2.1,1.1c-0.5,0.6-0.7,1.5-0.7,2.3l2.8,24.2
				C337.5,341.8,338.8,342.9,340.4,342.9z"/>
			<path class="st0" d="M127.2,556.8c0.5,1.1,1.6,1.7,2.8,1.7c0.4,0,0.8-0.1,1.2-0.3l44.3-19.7c0.8-0.3,1.3-1,1.6-1.7
				c0.3-0.8,0.2-1.6-0.1-2.4l-0.4-0.7c-0.7-1.5-2.5-2.1-4-1.5l-44.3,19.7c-0.8,0.3-1.3,1-1.6,1.7c-0.3,0.8-0.2,1.6,0.1,2.4
				L127.2,556.8z"/>
			<path class="st0" d="M328.3,547.4l0.8,0.2c0.3,0.1,0.5,0.1,0.8,0.1c1.3,0,2.6-0.9,2.9-2.2l3.4-11.9c0.2-0.8,0.1-1.6-0.3-2.4
				c-0.4-0.7-1.1-1.2-1.9-1.5l-0.8-0.2c-1.6-0.4-3.3,0.5-3.7,2.1l-3.4,11.9c-0.2,0.8-0.1,1.6,0.3,2.4
				C326.8,546.6,327.5,547.1,328.3,547.4z"/>
			<path class="st0" d="M150.2,564.4l-10.4,5.9c-1.5,0.8-2,2.7-1.2,4.2l0.4,0.7c0.4,0.7,1.1,1.2,1.9,1.4c0.3,0.1,0.5,0.1,0.8,0.1
				c0.5,0,1.1-0.1,1.5-0.4l10.4-5.9c0.7-0.4,1.2-1.1,1.4-1.9c0.2-0.8,0.1-1.6-0.3-2.3l-0.4-0.7C153.6,564.1,151.7,563.5,150.2,564.4
				z"/>
			<path class="st0" d="M415.9,604.9l-10.4-35.4c-0.5-1.6-2.1-2.5-3.7-2.1l-0.8,0.2c-0.8,0.2-1.5,0.7-1.9,1.5
				c-0.4,0.7-0.5,1.6-0.3,2.4l10.4,35.4c0,0.1,0.1,0.1,0.1,0.2h6.4C416.1,606.4,416.1,605.6,415.9,604.9z"/>
			<path class="st0" d="M326.1,568.9c0.2-0.8,0.1-1.6-0.3-2.4c-0.4-0.7-1.1-1.2-1.9-1.5l-0.8-0.2c-1.6-0.4-3.3,0.5-3.7,2.1
				l-11.6,40.1h7.3L326.1,568.9z"/>
			<path class="st0" d="M333.2,264.5l-0.9,0.1c-0.8,0.1-1.6,0.5-2.1,1.1c-0.5,0.6-0.7,1.5-0.7,2.3l1.4,12.3c0.2,1.6,1.5,2.7,3,2.7
				c0.1,0,0.2,0,0.3,0l0.9-0.1c0.8-0.1,1.6-0.5,2.1-1.1c0.5-0.6,0.7-1.5,0.7-2.3l-1.4-12.3C336.4,265.5,334.9,264.3,333.2,264.5z"/>
			<path class="st0" d="M432.7,606.8l-0.7,0.3h3.8C434.9,606.5,433.7,606.3,432.7,606.8z"/>
			<path class="st0" d="M346.4,555.7c0.1-0.8-0.1-1.6-0.6-2.3c-0.5-0.6-1.3-1.1-2.1-1.1l-0.9-0.1c-1.7-0.2-3.2,1-3.4,2.7l-6.1,52.2
				h7L346.4,555.7z"/>
			<path class="st0" d="M282.5,345.6l0.7-0.5c0.7-0.5,1.2-1.2,1.3-2c0.2-0.8,0-1.7-0.5-2.3l-6.7-9.6c-0.9-1.4-2.8-1.7-4.2-0.8
				l-0.7,0.5c-0.7,0.5-1.2,1.2-1.3,2c-0.2,0.8,0,1.7,0.5,2.3l6.7,9.6c0.6,0.9,1.5,1.3,2.5,1.3C281.4,346.1,282,345.9,282.5,345.6z"
				/>
			<path class="st0" d="M288.1,561.6l0.7,0.4c0.5,0.3,1,0.4,1.5,0.4c1,0,2-0.5,2.6-1.5l13-20.9c0.4-0.7,0.6-1.6,0.4-2.4
				c-0.2-0.8-0.7-1.5-1.4-1.9l-0.7-0.4c-1.4-0.8-3.3-0.4-4.1,1l-13,20.9c-0.4,0.7-0.6,1.6-0.4,2.4
				C286.9,560.5,287.4,561.2,288.1,561.6z"/>
			<path class="st0" d="M287,318.9c0.4,0,0.8-0.1,1.2-0.3l0.8-0.3c0.8-0.3,1.3-1,1.6-1.7c0.3-0.8,0.2-1.6-0.1-2.4l-15.8-33
				c-0.7-1.5-2.5-2.2-4-1.5l-0.8,0.3c-0.8,0.3-1.3,1-1.6,1.7c-0.3,0.8-0.2,1.6,0.1,2.4l15.8,33C284.7,318.2,285.8,318.9,287,318.9z"
				/>
			<path class="st0" d="M257.6,344.5l0.7-0.5c0.6-0.5,1.1-1.3,1.1-2.1c0.1-0.8-0.2-1.7-0.7-2.3l-12.2-13.9c-1.1-1.2-3-1.4-4.2-0.4
				l-0.7,0.5c-0.6,0.5-1.1,1.3-1.1,2.1c-0.1,0.8,0.2,1.7,0.7,2.3l12.2,13.9c0.6,0.7,1.5,1,2.3,1C256.3,345.2,257,345,257.6,344.5z"
				/>
			<path class="st0" d="M261.7,317.7c0.6,0,1.2-0.2,1.7-0.5l0.7-0.5c0.7-0.5,1.2-1.2,1.3-2c0.2-0.8,0-1.7-0.5-2.3L253.4,296
				c-0.9-1.4-2.8-1.7-4.2-0.8l-0.7,0.5c-0.7,0.5-1.2,1.2-1.3,2c-0.2,0.8,0,1.7,0.5,2.3l11.5,16.4
				C259.8,317.3,260.7,317.7,261.7,317.7z"/>
			<path class="st0" d="M313,370.7l0.8-0.3c0.8-0.3,1.4-0.9,1.7-1.7c0.3-0.8,0.3-1.6-0.1-2.4l-15.6-34.7c-0.7-1.5-2.5-2.2-4-1.6
				l-0.8,0.3c-0.8,0.3-1.4,0.9-1.7,1.7c-0.3,0.8-0.3,1.6,0.1,2.4l15.6,34.7c0.5,1.1,1.6,1.8,2.8,1.8
				C312.2,371,312.6,370.9,313,370.7z"/>
			<path class="st0" d="M324.1,319.4c0.2,0,0.4,0,0.6-0.1l0.8-0.2c0.8-0.2,1.5-0.6,2-1.3c0.5-0.7,0.6-1.5,0.5-2.3l-15.1-72.8
				c-0.3-1.6-1.9-2.7-3.6-2.4l-0.8,0.2c-0.8,0.2-1.5,0.6-2,1.3c-0.5,0.7-0.6,1.5-0.5,2.3l15.1,72.8
				C321.4,318.4,322.7,319.4,324.1,319.4z"/>
			<path class="st0" d="M328.9,197.3l-0.8,0c-0.8,0-1.6,0.4-2.2,1.1c-0.5,0.6-0.8,1.5-0.7,2.3l2.7,31.3c0.1,1.6,1.5,2.8,3.1,2.8
				c0.1,0,0.1,0,0.2,0l0.8,0c0.8,0,1.6-0.4,2.2-1.1c0.5-0.6,0.8-1.5,0.7-2.3l-2.7-31.3C332,198.5,330.6,197.2,328.9,197.3z"/>
			<path class="st0" d="M294.3,596.1l0.8,0.3c0.4,0.1,0.7,0.2,1.1,0.2c1.2,0,2.3-0.7,2.8-1.9l12.2-29.5c0.3-0.8,0.3-1.6,0-2.4
				c-0.3-0.8-0.9-1.4-1.7-1.7l-0.8-0.3c-1.6-0.6-3.3,0.2-3.9,1.7l-12.2,29.5c-0.3,0.8-0.3,1.6,0,2.4
				C292.9,595.2,293.5,595.8,294.3,596.1z"/>
			<path class="st0" d="M198.2,579c-0.1,0.8,0.2,1.7,0.8,2.3l0.6,0.6c0.6,0.7,1.5,1,2.3,1c0.7,0,1.4-0.2,1.9-0.7l34.1-27.7
				c0.6-0.5,1.1-1.3,1.1-2.1c0.1-0.8-0.2-1.7-0.7-2.3l-0.6-0.6c-1.1-1.2-3-1.4-4.2-0.4l-34.1,27.7
				C198.7,577.4,198.3,578.2,198.2,579z"/>
			<path class="st0" d="M482.6,423.8c-0.5,0.7-0.6,1.5-0.4,2.3l0.2,0.8c0.3,1.4,1.6,2.4,3,2.4c0.2,0,0.4,0,0.6-0.1l32.3-6.2
				c0.8-0.2,1.5-0.6,2-1.3c0.5-0.7,0.6-1.5,0.5-2.3l-0.2-0.8c-0.3-1.6-1.9-2.7-3.6-2.4l-32.3,6.2
				C483.8,422.6,483.1,423.1,482.6,423.8z"/>
			<path class="st0" d="M552.3,477c1.5,0,2.9-1.1,3-2.7l0.1-0.8c0.1-0.8-0.1-1.6-0.6-2.3c-0.5-0.6-1.3-1.1-2.1-1.1l-18.7-2
				c-1.7-0.2-3.2,1-3.4,2.7l-0.1,0.8c-0.1,0.8,0.1,1.6,0.6,2.3c0.5,0.6,1.3,1.1,2.1,1.1l18.7,2C552.1,476.9,552.2,477,552.3,477z"/>
			<path class="st0" d="M491.3,512.5l48.2,21.2c0.4,0.2,0.8,0.3,1.2,0.3c1.2,0,2.3-0.7,2.8-1.8l0.3-0.8c0.3-0.7,0.4-1.6,0.1-2.4
				c-0.3-0.8-0.9-1.4-1.6-1.7l-48.2-21.2c-1.5-0.7-3.3,0-4,1.5l-0.3,0.8c-0.3,0.7-0.4,1.6-0.1,2.4
				C490,511.6,490.6,512.2,491.3,512.5z"/>
			<path class="st0" d="M492.3,407.7c0.3,0,0.7-0.1,1-0.2l12.5-4.2c0.8-0.3,1.4-0.8,1.8-1.6c0.4-0.7,0.4-1.6,0.1-2.4l-0.3-0.8
				c-0.6-1.6-2.3-2.4-3.9-1.9L491,401c-0.8,0.3-1.4,0.8-1.8,1.6c-0.4,0.7-0.4,1.6-0.1,2.4l0.3,0.8
				C489.8,406.9,491,407.7,492.3,407.7z"/>
			<path class="st0" d="M506.2,494.9l24.8,6.6c0.3,0.1,0.5,0.1,0.8,0.1c1.3,0,2.6-0.9,2.9-2.2l0.2-0.8c0.2-0.8,0.1-1.6-0.3-2.4
				c-0.4-0.7-1.1-1.2-1.9-1.5l-24.8-6.6c-1.6-0.4-3.3,0.5-3.7,2.1l-0.2,0.8c-0.2,0.8-0.1,1.6,0.3,2.4
				C504.7,494.2,505.4,494.7,506.2,494.9z"/>
			<path class="st0" d="M449.3,368.1c-0.6,0.5-1.1,1.3-1.1,2.1c-0.1,0.8,0.2,1.7,0.8,2.3l0.6,0.6c0.6,0.7,1.5,1,2.3,1
				c0.7,0,1.4-0.2,1.9-0.7l26.2-21.3c0.6-0.5,1.1-1.3,1.1-2.1c0.1-0.8-0.2-1.7-0.7-2.3l-0.6-0.6c-1.1-1.2-3-1.4-4.2-0.4L449.3,368.1
				z"/>
			<path class="st0" d="M480,384.1c-0.3,0.8-0.2,1.6,0.1,2.4l0.4,0.7c0.5,1.1,1.6,1.7,2.8,1.7c0.4,0,0.8-0.1,1.2-0.3l22.6-10
				c0.8-0.3,1.3-1,1.6-1.7c0.3-0.8,0.2-1.6-0.1-2.4l-0.4-0.7c-0.7-1.5-2.5-2.2-4-1.5l-22.6,10C480.9,382.7,480.3,383.3,480,384.1z"
				/>
			<path class="st0" d="M521.6,395.5c0.3,0.7,0.7,1.2,1.3,1.6l-1.8-3c0,0.2,0.1,0.5,0.2,0.7L521.6,395.5z"/>
			<path class="st0" d="M530,433c-0.2-1.7-1.7-2.9-3.4-2.7l-31.5,3.3c-0.8,0.1-1.6,0.5-2.1,1.1c-0.5,0.6-0.7,1.5-0.7,2.3l0.1,0.8
				c0.2,1.6,1.5,2.7,3,2.7c0.1,0,0.2,0,0.3,0l31.5-3.3c0.8-0.1,1.6-0.5,2.1-1.1c0.5-0.6,0.7-1.5,0.7-2.3L530,433z"/>
			<path class="st0" d="M297.2,307.2c0.5,1.2,1.6,2,2.9,2c0.3,0,0.7-0.1,1-0.2l0.8-0.3c0.8-0.3,1.4-0.8,1.8-1.6
				c0.4-0.7,0.4-1.6,0.1-2.4l-25.1-69.4c-0.3-0.8-0.8-1.4-1.5-1.7l-4,6.9L297.2,307.2z"/>
			<path class="st0" d="M516.4,546.9c1,0,2-0.5,2.6-1.5l0.4-0.7c0.4-0.7,0.6-1.6,0.4-2.4c-0.2-0.8-0.7-1.5-1.4-1.9l-22.1-12.7
				c-1.4-0.8-3.3-0.4-4.1,1l-0.4,0.7c-0.4,0.7-0.6,1.6-0.4,2.4c0.2,0.8,0.7,1.5,1.4,1.9l22.1,12.7
				C515.3,546.8,515.9,546.9,516.4,546.9z"/>
			<path class="st0" d="M358.4,588.2c0-1.7-1.4-3.1-3.1-3.1h-0.9c-1.7,0-3.1,1.4-3.1,3.1v18.9h7V588.2z"/>
			<path class="st0" d="M276.5,585.9c-0.2-0.8-0.7-1.5-1.4-1.9l-0.7-0.4c-1.4-0.8-3.3-0.4-4.1,1L257,605.9c-0.2,0.4-0.4,0.8-0.4,1.2
				h7.9l11.6-18.8C276.5,587.6,276.7,586.7,276.5,585.9z"/>
			<path class="st0" d="M457.1,596.2l-0.7,0.5c-0.7,0.5-1.2,1.2-1.3,2c-0.2,0.8,0,1.7,0.5,2.3l4.3,6.1h8.5l-7-10.1
				C460.3,595.6,458.5,595.3,457.1,596.2z"/>
			<path class="st0" d="M501.8,576.2c0.8,0,1.7-0.3,2.3-1l0.6-0.6c0.6-0.6,0.8-1.4,0.8-2.3c-0.1-0.8-0.5-1.6-1.1-2.1l-54.2-45
				c-1.3-1.1-3.1-0.9-4.2,0.3l-0.6,0.6c-0.6,0.6-0.8,1.4-0.8,2.3c0.1,0.8,0.5,1.6,1.1,2.1l54.2,45
				C500.4,576,501.1,576.2,501.8,576.2z"/>
			<path class="st0" d="M449.3,555.4l-0.7,0.5c-0.6,0.5-1.1,1.3-1.1,2.1c-0.1,0.8,0.2,1.7,0.7,2.3l24.3,27.8c0.6,0.7,1.5,1,2.3,1
				c0.7,0,1.4-0.2,1.9-0.7l0.7-0.5c0.6-0.5,1.1-1.3,1.1-2.1c0.1-0.8-0.2-1.7-0.7-2.3l-24.3-27.8
				C452.5,554.6,450.6,554.4,449.3,555.4z"/>
			<path class="st0" d="M433,315.7c-0.4,0.7-0.6,1.6-0.4,2.4c0.2,0.8,0.7,1.5,1.4,1.9l0.7,0.4c0.5,0.3,1,0.4,1.5,0.4
				c1,0,2-0.5,2.6-1.5l20.3-32.7l-4-6.9L433,315.7z"/>
			<path class="st0" d="M505.2,451.9v0.8c0,1.7,1.4,3.1,3.1,3.1h48.5l-4-7h-44.5C506.6,448.8,505.2,450.2,505.2,451.9z"/>
			<path class="st0" d="M370.7,307.5l0.9,0.1c0.1,0,0.2,0,0.3,0c1.5,0,2.9-1.2,3-2.7l5-42.6c0.1-0.8-0.1-1.6-0.6-2.3
				c-0.5-0.6-1.3-1.1-2.1-1.1l-0.9-0.1c-1.7-0.2-3.2,1-3.4,2.7l-5,42.6c-0.1,0.8,0.1,1.6,0.6,2.3C369.1,307,369.9,307.4,370.7,307.5
				z"/>
			<path class="st0" d="M535.6,584.9c0.6,0.5,1.3,0.7,2,0.7c0.1,0,0.2,0,0.3,0c0.8-0.1,1.6-0.5,2.1-1.1l0.5-0.7
				c1-1.3,0.8-3.2-0.4-4.2l-16.6-14.2c-0.6-0.5-1.5-0.8-2.3-0.7c-0.8,0.1-1.6,0.5-2.1,1.2l-0.5,0.7c-1,1.3-0.8,3.2,0.4,4.2
				L535.6,584.9z"/>
			<path class="st0" d="M352.6,193.7c0,1.6,1.2,2.9,2.8,3l0.8,0.1c0.1,0,0.2,0,0.2,0c0.8,0,1.5-0.3,2.1-0.8c0.6-0.6,1-1.4,1-2.3
				l-0.4-50.2c0-1.6-1.2-2.9-2.8-3l-0.8-0.1c-0.9-0.1-1.7,0.2-2.3,0.8c-0.6,0.6-1,1.4-1,2.3L352.6,193.7z"/>
			<path class="st0" d="M422.8,554c0.6,0.9,1.5,1.3,2.5,1.3c0.6,0,1.1-0.2,1.7-0.5l0.7-0.5c0.7-0.5,1.2-1.2,1.3-2
				c0.2-0.8,0-1.7-0.5-2.4l-14.1-20.2c-0.9-1.4-2.8-1.7-4.2-0.8l-0.7,0.5c-0.7,0.5-1.2,1.2-1.3,2c-0.2,0.8,0,1.7,0.5,2.3L422.8,554z
				"/>
			<path class="st0" d="M417.4,294c0.3,0.8,0.9,1.4,1.7,1.7l0.8,0.3c0.4,0.1,0.7,0.2,1.1,0.2c1.2,0,2.3-0.7,2.8-1.9l9.2-22.2
				c0.3-0.8,0.3-1.6,0-2.4c-0.3-0.8-0.9-1.4-1.7-1.7l-0.8-0.3c-1.5-0.6-3.3,0.1-3.9,1.7l-9.2,22.2
				C417.1,292.4,417.1,293.3,417.4,294z"/>
			<path class="st0" d="M368.3,599.9c0.2,1.6,1.5,2.7,3,2.7c0.1,0,0.2,0,0.3,0l0.9-0.1c0.8-0.1,1.6-0.5,2.1-1.1s0.7-1.5,0.7-2.3
				l-1.3-11.5c-0.2-1.7-1.7-2.9-3.4-2.7l-0.9,0.1c-0.8,0.1-1.6,0.5-2.1,1.1c-0.5,0.6-0.7,1.5-0.7,2.3L368.3,599.9z"/>
			<path class="st0" d="M383.1,239.9l6.4-25.6c0.4-1.6-0.6-3.3-2.2-3.7l-0.8-0.2c-0.8-0.2-1.6-0.1-2.4,0.3c-0.7,0.4-1.2,1.1-1.4,1.9
				l-6.4,25.6c-0.4,1.6,0.6,3.3,2.2,3.7l0.8,0.2c0.3,0.1,0.5,0.1,0.8,0.1c0.5,0,1.1-0.1,1.5-0.4
				C382.3,241.4,382.9,240.7,383.1,239.9z"/>
			<path class="st0" d="M378,558.5l0.8-0.2c0.8-0.2,1.5-0.6,2-1.3c0.5-0.7,0.6-1.5,0.5-2.3l-2.4-11.3c-0.3-1.6-1.9-2.7-3.6-2.4
				l-0.8,0.2c-0.8,0.2-1.5,0.6-2,1.3c-0.5,0.7-0.6,1.5-0.4,2.3l2.4,11.3c0.3,1.4,1.6,2.4,3,2.4C377.6,558.6,377.8,558.6,378,558.5z"
				/>
			<path class="st0" d="M419.8,221.5l-0.8-0.2c-1.6-0.4-3.3,0.5-3.7,2.1l-6,20.7c-0.2,0.8-0.1,1.6,0.3,2.4c0.4,0.7,1.1,1.2,1.9,1.5
				l0.8,0.2c0.3,0.1,0.5,0.1,0.8,0.1c1.3,0,2.6-0.9,2.9-2.2l6-20.7c0.2-0.8,0.1-1.6-0.3-2.4C421.3,222.2,420.6,221.7,419.8,221.5z"
				/>
			<path class="st0" d="M366.6,314.9l-4.8,41c-0.1,0.8,0.1,1.6,0.6,2.3c0.5,0.6,1.3,1,2.1,1.1l0.9,0.1c0.1,0,0.2,0,0.3,0
				c1.5,0,2.9-1.2,3-2.7l4.8-41c0.1-0.8-0.1-1.6-0.6-2.3c-0.5-0.6-1.3-1-2.1-1.1l-0.9-0.1C368.3,312,366.8,313.2,366.6,314.9z"/>
			<path class="st0" d="M482.2,365.3c-0.2,0.8,0,1.7,0.5,2.3l0.5,0.7c0.6,0.9,1.6,1.3,2.5,1.3c0.6,0,1.1-0.2,1.7-0.5l14.2-9.2
				l-3.5-6l-14.5,9.4C482.8,363.7,482.3,364.4,482.2,365.3z"/>
			<path class="st0" d="M591.2,517.5c0.4,0,0.8-0.1,1.1-0.2l-4.5-7.8l-36.9-9.9c-1.6-0.4-3.3,0.5-3.7,2.1l-0.2,0.8
				c-0.2,0.8-0.1,1.6,0.3,2.4c0.4,0.7,1.1,1.2,1.9,1.5l41.3,11C590.7,517.5,591,517.5,591.2,517.5z"/>
			<path class="st0" d="M531.5,412.9c-0.8,0.2-1.5,0.6-2,1.3c-0.5,0.7-0.6,1.5-0.4,2.3l0.2,0.8c0.3,1.4,1.6,2.4,3,2.4
				c0.2,0,0.4,0,0.6-0.1l2.9-0.6l-3.7-6.4L531.5,412.9z"/>
			<path class="st0" d="M576.2,572.5c1.1,0,2.1-0.6,2.7-1.6l0.4-0.7c0.4-0.7,0.5-1.6,0.2-2.4c-0.2-0.8-0.8-1.4-1.5-1.8l-34-17.9
				c-1.5-0.8-3.3-0.2-4.1,1.2l-0.4,0.7c-0.4,0.7-0.5,1.6-0.2,2.4c0.2,0.8,0.8,1.4,1.5,1.8l34,17.9
				C575.2,572.4,575.7,572.5,576.2,572.5z"/>
			<path class="st0" d="M396.9,285.7l0.8,0.2c0.3,0.1,0.5,0.1,0.8,0.1c1.3,0,2.6-0.9,3-2.3l5.2-19c0.2-0.8,0.1-1.6-0.3-2.3
				c-0.4-0.7-1.1-1.2-1.9-1.4l-0.8-0.2c-1.6-0.4-3.3,0.5-3.7,2.2l-5.2,19c-0.2,0.8-0.1,1.6,0.3,2.3
				C395.4,284.9,396.1,285.5,396.9,285.7z"/>
			<path class="st0" d="M426.7,357.9c-0.6,0.6-1,1.5-0.9,2.4c0.1,0.9,0.5,1.7,1.2,2.2l0.5,0.4c0.5,0.4,1.2,0.6,1.8,0.6
				c0.8,0,1.6-0.3,2.2-0.9l45.4-45.1l-3.5-6.1L426.7,357.9z"/>
			<path class="st0" d="M392.9,353c0.3,0.8,0.9,1.4,1.7,1.7l0.8,0.3c0.4,0.1,0.7,0.2,1.1,0.2c1.2,0,2.3-0.7,2.8-1.9l12.7-30.7
				c0.3-0.8,0.3-1.6,0-2.4c-0.3-0.8-0.9-1.4-1.7-1.7l-0.8-0.3c-1.6-0.6-3.3,0.1-3.9,1.7l-12.7,30.7
				C392.6,351.4,392.6,352.3,392.9,353z"/>
			<path class="st0" d="M487.7,336.1l-1.4,1.1c-0.6,0.5-1.1,1.3-1.1,2.1s0.2,1.7,0.8,2.3l0.6,0.6c0.6,0.7,1.5,1,2.3,1
				c0.7,0,1.4-0.2,1.9-0.7l0.5-0.4L487.7,336.1z"/>
		</g>
		<g>
			<path class="st0" d="M400.8,423c-1.5-0.3-2.9-0.6-4.4-0.8c0.9,0.5,1.8,1.1,2.7,1.8c0.5,0,1-0.1,1.6-0.1
				C401.2,424,401.4,423.2,400.8,423z"/>
			<path class="st0" d="M399.5,451c0.2,0,0.4-0.2,0.4-0.3C399.7,450.8,399.6,450.9,399.5,451z"/>
			<path class="st0" d="M529.6,469.9c-10.3-1.1-21.9,2.8-31.7,5.7c-11,3.2-21.7,7.1-32.2,11.5c-6.6,2.7-13.2,5.6-19.7,8.6
				c0.6-1.4,1-2.9,0.8-4.2c3.4-1.8,6.7-3.7,10-5.6c6.2-3.7,12.3-7.7,17.9-12.2c2.8-1.2,5.1-3.3,6.8-5.9c9-8.5,16.1-18.6,19.7-31.2
				c0.7-2.6-1.3-4.7-3.7-4.9c-8.8-0.7-16.6-4.8-24.2-9c-1.3-0.7-2.6-1.4-3.8-2.1c-2.3-4.7-3.5-10-5.3-15
				c17.1,10.1,36.7,16.4,56.3,17.3c4.1,0.2,4-6,0-6.4c-14.1-1.3-28-4.5-40.7-10.8c-6.7-3.3-12.6-7.5-18.2-12.1
				c6.1,1.5,13.2,2.7,18.8,1.3c1.1-0.3,1.2-1.7,0.3-2.3c-5.9-3.9-14-3.8-20.7-5.7c-4.9-1.4-9.2-4.2-13.5-6.7
				c-8.7-7.7-17.6-14.6-28.3-19.2c-10.6-4.5-21.8-6.9-33.1-8.2c-22.1-2.6-46-2.5-66.8,6.3c-18.1,7.6-35.4,19.5-51.9,30.1
				c-7.4,4.7-14.7,9.4-22.2,13.9c-7.6,2-14.8,4.4-22.9,5c-8.6,0.6-19,1.7-27.4-0.4c-1.6-0.4-2.3,1.6-1.1,2.5
				c8.2,5.9,18.7,4.9,28.5,4.4c0.4,0,0.7,0,1.1-0.1c-10.5,4.6-21.3,7.7-32.7,10.3c-3.2,0.7-2.6,6,0.8,5.8
				c20.2-0.8,39.3-10.2,56.8-20.3c-0.2,2-0.1,4,0.1,5.9c0.3,2.7,1.3,8.8,3.8,11.8c-2.2,2-4.5,3.8-7.1,5.3c-6,3.4-12.8,5.2-19.6,6.6
				c-7,1.4-26.7,0.6-27.7,11.2c-0.8,8.4,12.1,9.6,17.7,11.8c3.3,1.3,6.6,2.8,9.9,4.3c0.2,0.1,0.4,0.2,0.6,0.3
				c2.7,1.3,5.3,2.6,7.9,3.9c1.2,1.2,2.8,2.1,4.7,2.4c1,0.5,2.1,1.1,3.1,1.6c44.4,23.1,90.2,45.4,141.7,37.9
				c7.6-1.1,15.1-2.8,22.5-4.9c-0.1,0.9-0.1,1.9-0.1,2.9c0,1.1-0.2,2.3-0.3,3.4c-8,3.5-16,6.6-24.7,8c-12.5,2-25.2,1.4-37.7,2.2
				c-10.1-0.8-20.2-0.9-30.2-2.7c-15.2-2.7-28.1-9-40.7-17.7c-4.2-2.9-8.3-5.7-12.5-8.5c-2.6-2.3-5.9-4.4-9.4-6.1
				c-4.9-3-9.8-6-15-8.6c-11.1-5.8-24.1-13-36.8-14.2c-2.1-0.2-2.4,2.6-1,3.6c5.8,4.1,12.8,6.7,19.2,9.9c0.2,0.1,0.4,0.2,0.5,0.3
				c-8.5-0.1-17.2,2-24.7,5.6c-1.5,0.7-0.6,2.7,0.8,2.8c5.9,0.7,11.8-0.4,17.7-0.8c6.4-0.5,11.7,1,17.6,3.3c5.1,2,10.3,4.1,15.4,6.3
				c3.2,1.3,6.2,2.9,9.4,4.2c7,4.8,13.9,9.8,21.1,14.3c14.4,9.1,31.2,14.2,48.4,15.4c0.2,0.1,0.5,0.2,0.7,0.3
				c11.6,2.8,24.1,3.1,35.9,4.7c8,1.1,16.3,2.3,24.4,1.9c9.4-0.5,18.5-3.4,27.8-4.9c5.4-0.9,10.9-1.4,16.4-1.2
				c4.8,0.2,9.3,1,14.1-0.1c0.6-0.1,0.8-1,0.4-1.4c-14.7-11.8-39.7-1.2-56.1,0.4c-4.2,0.4-8.4,0.3-12.5,0
				c11.9-1.5,23.6-4.5,34.4-9.3c6.1-2.7,12.2-5.5,18.3-8.4c0,0,0,0,0,0c4.8,0,9.4-2.4,14-3.9c5.3-1.7,10.7-2.8,16.2-3.7
				c10.8-1.7,20.1-3.3,29.3-9.1c0.9-0.6,0.4-2.2-0.8-1.9c-10.9,3.6-22.8,5.6-34.1,7.1c4.5-2.1,9-4.1,13.6-6
				c10.6-4.6,21.3-8.7,32.3-12.2c11.2-3.5,23.5-4.3,34.3-8.4C533.9,474.9,533.2,470.3,529.6,469.9z M492.5,438.6
				c-1.4,3.8-3.2,7.3-5.3,10.6c0.4-3.7,0.5-8-0.2-12C488.8,437.8,490.6,438.2,492.5,438.6z M219.1,456.5c-2.2-0.9-4.5-1.8-6.8-2.5
				c-0.5-0.2-5.3-1.3-5.4-1.7c-0.9-2.8,8.1-3.1,8.5-3.1c1.5-0.2,3.1-0.4,4.6-0.6C219.3,451.1,218.9,453.9,219.1,456.5z M228.8,460.7
				c-2.9-3.7-2.3-8.6-2.1-13.4c1-0.2,2.1-0.4,3.1-0.7C228.9,451,228.4,456.1,228.8,460.7z M475,432.2c0.6,0.3,1.3,0.6,1.9,0.9
				c1.3,6,2.8,11.3,2.2,17.9c-0.5,5.2-2.3,9-4.5,12.8c-1,0.9-2.1,1.8-3.2,2.7c2.7-6.7,3.8-14.1,4.1-21.3
				C475.6,442.2,476.4,436.1,475,432.2z M458,401.7c2.4,5.1,3.8,10.5,6,15.9c-3.1-1.6-6.2-3.3-9.3-4.9c-1.3-3.1-3.1-6-4.1-9.2
				c-0.8-2.7-1.2-5.5-1.5-8.4C451.9,397.5,454.9,399.6,458,401.7z M265.8,405.8c0.5-3,1.9-5.7,3.1-8.4c1.2-0.8,2.5-1.5,3.7-2.3
				c-1.9,2.9-2.9,6.5-1.3,9.4c0.2,0.4,1,0.4,1.1-0.1c0.4-2,0.7-4.1,1.5-6c1-2.6,2.8-4.6,4.6-6.7c0.1-0.1,0.1-0.2,0.2-0.3
				c10.9-6.6,21.8-13.2,32.9-19.3c19.8-10.8,41.2-12.2,63.3-10.8c12.9,0.8,25.8,2.9,37.8,7.7c12.3,5,21.6,13.4,31.4,22
				c0.7,3.3,0.8,6.9,1.5,10.2c0.5,2.1,1.1,4.2,2.1,6.2c-6.2-2.6-10.4-6.2-14.7-12c-3.2-4.4-6.1-9-10.1-12.8
				c-6.8-6.4-15.1-9.7-24.4-10.4c-0.7-0.1-0.9,1.2-0.2,1.3c15.2,2.6,23.5,11.5,32,23.5c1.1,1.5,2.3,3.2,3.6,4.8
				c-0.6-0.3-1.1-0.6-1.7-0.9c-7.6-4.1-15.1-8-22.7-11.2c-6.2-3-12.6-5.8-19.2-6.4c0,0,0,0,0,0c-1.6-0.4-3.2-0.7-4.8-1
				c-42.4-7.7-85.7,5.3-118.9,31.9C265.9,411.5,265.3,408.9,265.8,405.8z M421.1,429c-0.1,0-0.2,0-0.3,0c1-0.1,2-0.2,3-0.2
				c0,0.3-0.1,0.6-0.1,0.9C422.9,429.4,422,429.2,421.1,429z M422.5,437.4C422.5,437.4,422.5,437.4,422.5,437.4
				c-0.1,0-0.2,0-0.3-0.1C422.3,437.3,422.4,437.3,422.5,437.4z M400.8,425.7c2.3,2.5,3.9,5.6,4.5,9.1c5.4,2,10.9,4.1,16.6,5.1
				c-0.3,1.2-0.6,2.4-1,3.6c0-0.1-0.1-0.2-0.3-0.3c-4.5-2.9-9.9-4.7-15.1-6.4c0,0.3,0.1,0.7,0.1,1c0,1.2-0.1,2.4-0.4,3.6
				c2.7,1.6,5.4,3.2,8.1,4.8c-0.5-0.2-1-0.3-1.6-0.4c-1-0.2-1.8,1.2-0.7,1.8c2,1.1,4.1,2,6,3.1c0.4,0.2,0.8,0.5,1.2,0.8
				c-0.2,0.5-0.4,0.9-0.6,1.4c-4.1-3.6-8.4-6.5-13-9c-0.5,1.5-1.3,2.9-2.2,4.2c0.5,0.3,0.9,0.7,1.4,1c3.8,3.1,7,6.6,11.8,7.9
				c-0.4,0.7-0.7,1.4-1.1,2.1c-0.3-0.2-0.6-0.4-0.9-0.5c-2.4-1.5-4.9-3-7.7-3.7c-0.7-0.2-1.3,0.7-0.7,1.2c2,1.8,4.4,3.1,6.6,4.6
				c0.4,0.2,0.8,0.5,1.2,0.9c-0.6,0.9-1.1,1.8-1.7,2.6c-4.1-4-9.1-8-14.4-10.9c-2.1,1.2-4.5,2-7.1,2.3c4.7,4.8,9.5,9.6,14.1,14.6
				c1.1,1.2,2.9-0.6,1.8-1.8c-3.2-3.6-6.6-7.1-10.1-10.5c0.9,0.5,1.8,1,2.7,1.5c3.9,2.3,7.7,4.6,11.6,7c-1.4,1.9-3,3.8-4.6,5.6
				c-4.2-4.7-9.2-9-13.7-13.3c-0.9-0.9-1.9-2-3-3c-0.1,0-0.3,0-0.4,0c-9.7,0-17.6-7.9-17.6-17.6s7.9-17.6,17.6-17.6
				c1.8,0,3.6,0.3,5.3,0.8c0-0.3-0.1-0.5-0.1-0.8c4.3-0.6,8.6-1.5,12.9-2.1c0.5-0.1,0.3-0.8-0.1-0.8c-4.6-0.1-8.9,0.1-13.2,1.3
				c-0.2-0.8-0.4-1.7-0.6-2.5c10.3-1.4,20.7-3.8,30.8-5.6c0.1,0.7,0.3,1.4,0.4,2.1c-1.8,0-3.6,0.4-5.4,0.6c-3.3,0.2-6,0.7-9.2,1.6
				c-1.7,0.5-1.3,2.9,0.4,2.9c3.1,0.1,6.5,0.9,9.6,1.4c0.8,0.1,1.6,0.3,2.3,0.4c-4-0.4-8-0.2-12,0.2c-5.1,0.4-10.3,0.4-15.3,1.3
				c0.8,0.3,1.6,0.6,2.3,1c4.3-0.1,8.6-0.5,13-0.4c2.4,0.1,4.9,0.3,7.3,0.4c-1.4,0.2-2.7,0.5-4.1,0.9c-0.7,0.2-0.8,1.3,0,1.5
				c2.9,0.5,5.8,0.2,8.7-0.2c1-0.1,2-0.3,3-0.4c0,0.9-0.1,1.7-0.1,2.6C416.3,425.9,408.5,425.8,400.8,425.7z M413.8,431
				c-2.1-0.6-4.2-1.1-6.4-1.7c2.9,0,5.8,0,8.7-0.1C415.2,429.6,414.5,430.1,413.8,431z M414.8,435.6c-1-0.2-2.1-0.5-3-0.8
				c-0.4-0.1-0.7-0.2-1.1-0.3c1.2,0.2,2.4,0.5,3.5,0.7C414.4,435.3,414.6,435.4,414.8,435.6z M420.8,444.1c-0.2,0.8-0.5,1.6-0.8,2.4
				c-1.6-1.2-3.2-2.3-4.9-3.4c1.7,0.5,3.4,0.9,5.1,1.1C420.4,444.3,420.6,444.3,420.8,444.1z M416.6,454.8c-0.1,0.1-0.1,0.3-0.2,0.4
				c-2.5-1.6-4.8-3.4-7.1-5.3C411.6,451.6,414,453.3,416.6,454.8z M385.3,465c0.6,0.3,1.2,0.7,1.8,1c0.1,0.1,0.2,0.1,0.3,0.1
				c3.1,4.4,6.4,8.7,9.7,12.9c-0.4,0.3-0.7,0.6-1.1,0.9C392.7,474.7,388.8,470,385.3,465z M394.8,480.8
				C394.7,480.8,394.7,480.8,394.8,480.8c-0.2-0.1-0.3-0.2-0.4-0.4C394.5,480.5,394.6,480.7,394.8,480.8z M381,488
				c-2.3-5.4-4.8-11-7.6-16.5c3.3,5.3,6.7,10.7,9.5,16.3c-0.6,0.3-1.2,0.5-1.9,0.8C381.1,488.4,381.1,488.2,381,488z M367.7,478.4
				c-0.8-3.6-1.4-7.3-2.1-11c0.7,1.9,1.4,3.8,2.1,5.7c1.4,3.9,2.4,8.2,4.9,11.5c0.3,0.4,1,0.1,0.9-0.4c-0.2-4.7-2.8-9.2-4.5-13.6
				c-0.7-1.9-1.4-3.8-2.2-5.6c0.1,0,0.3-0.1,0.4-0.1c2.7,6.4,6,12.8,9.5,18.9c-0.8-0.4-1.5,0.2-1.6,1c-0.2,1.5,0.9,3,1.6,4.3
				c0.2,0.3,0.4,0.7,0.5,1c-2.1,0.8-4.3,1.4-6.4,2C370.3,487.4,368.7,483,367.7,478.4z M369.1,492.4c-0.3,0.1-0.7,0.1-1,0.2
				c0-1.2,0-2.4-0.2-3.6C368.3,490.2,368.6,491.3,369.1,492.4z M364,489.6c0.1,1.2,0.2,2.5,0.3,3.7c-0.9,0.1-1.7,0.3-2.6,0.4
				c-1.9-8.7-1.2-17.9-2.4-26.8c0.2,0,0.5-0.1,0.7-0.1c0.3,2.6,0.9,5.1,1.8,7.2c0.5,1.2,2.3,0.5,2.3-0.6c0-1.3-0.1-2.7-0.2-4
				c0.5,2.8,1.1,5.7,1.6,8.5c0.3,1.6,0.6,3.1,0.9,4.7c-0.3-0.7-0.6-1.4-1-2.1c-0.6-1-1.8-0.4-2,0.5
				C363.1,483.9,363.7,486.8,364,489.6z M355.2,467.3c0.5,0,1,0,1.5-0.1c-0.1,8.6,0.8,18.3,2.8,26.7c-1.7,0.1-3.4,0.2-5.2,0.3
				c-0.5-4.7,0.7-10.2,0.8-14.3C355.3,475.7,355.3,471.5,355.2,467.3z M378.3,474.4c-2.2-3.8-4.5-7.6-6.8-11.4
				c0.9-0.4,1.7-0.9,2.5-1.4c3.3,8.3,8,16.5,13.4,23.4c0.1,0.1,0.2,0.2,0.3,0.2c-0.8,0.4-1.6,0.9-2.4,1.3
				C383.5,482.3,380.7,478.4,378.3,474.4z M376.1,460.3c0.2-0.2,0.5-0.3,0.7-0.5c1.7,4.4,4.4,8.2,6.7,12.5c2.2,4.1,4.6,7.7,7.7,10.9
				c-0.6,0.4-1.2,0.7-1.8,1.1c0-0.2,0-0.4-0.1-0.6C384.8,475.9,380.4,468.1,376.1,460.3z M381.9,463.1c1.7,3.3,3.7,6.5,5.9,9.5
				c-0.4-0.4-0.9-0.9-1.4-1.3c-3.1-2.8-5.4-6.4-7.3-10.1C380,461.9,380.9,462.5,381.9,463.1z M380.2,457c0.2-0.2,0.4-0.3,0.5-0.5
				c1.1,1.7,2.3,3.4,3.4,5.1c-1-1-2-1.9-3-2.9C380.9,458.2,380.5,457.6,380.2,457z M394.8,471c-0.1,0.2-0.1,0.4-0.1,0.6
				c-4.1-5.5-8.1-11.1-12.2-16.7c0,0,0,0,0,0c4.6,2.3,8.6,7.7,11.9,10.9c0.9,0.9,1.8,1.8,2.8,2.8C396,468.9,395.1,469.9,394.8,471z
				 M370.7,390.2c0.6,0,1.2,0,1.8-0.1c0.3,0,0.6,0,0.9,0c-0.5,0.3-0.9,0.5-1.4,0.8C371.6,390.7,371.1,390.5,370.7,390.2z
				 M375.2,392.7c0.5-0.3,1.1-0.6,1.6-0.9c0.1,0,0.2-0.1,0.2-0.1c-0.5,0.4-1,0.8-1.5,1.2C375.4,392.9,375.3,392.8,375.2,392.7z
				 M399.6,394.1c0.6,0.2,1.2,0.4,1.8,0.6c-0.4,0.2-0.8,0.4-1.2,0.6c-0.5,0.2-1,0.5-1.5,0.8c-4.9,1.2-9.9,2.7-14.6,4.4
				c-0.1-0.1-0.2-0.2-0.2-0.3c1.1-0.5,2.3-0.9,3.4-1.4C391.3,397.3,395.7,396.2,399.6,394.1z M388.4,394c1.1-0.8,2.2-1.5,3.3-2.4
				c0.6,0.2,1.2,0.4,1.9,0.5C391.8,392.7,390.1,393.3,388.4,394z M389.1,408.2c-0.3-0.6-0.6-1.1-0.9-1.6c1.8-0.3,3.6-0.7,5.4-1
				c1.3-0.1,2.6-0.4,3.9-0.7c6.3-1.1,12.5-2.3,18.7-3.7c1.1,0.5,2.2,1.1,3.3,1.6c0.3,0.2,0.5,0.5,0.8,0.8c0.1,0.1,0.2,0.2,0.2,0.3
				C410.2,404.4,399.4,405.9,389.1,408.2z M420.8,405.8c0.3,0,0.5-0.2,0.6-0.4c0.4,0.8,0.7,1.6,1,2.5c-10.3,0.5-21,2.5-31.3,4.8
				c-0.3-0.8-0.6-1.5-0.9-2.3C400.4,409.2,410.8,407.6,420.8,405.8z M386.7,404.1c-0.1-0.2-0.2-0.3-0.3-0.5c1.3-0.3,2.7-0.7,4-1
				c-0.1,0.2-0.2,0.4-0.2,0.6C389,403.4,387.9,403.8,386.7,404.1z M423.5,419.9c0.2,0,0.3,0,0.5,0c0,0,0,0.1,0,0.1
				C423.8,419.9,423.6,419.9,423.5,419.9z M352.3,494.2c-0.9,0-1.9-0.1-2.8-0.1c0.9-5.1,2.1-10.7,2.9-16.2c-0.2,2.8-0.3,5.6-0.4,8.4
				C352,489,351.8,491.7,352.3,494.2z M347.7,494c-0.5,0-0.9-0.1-1.4-0.1c0.2-1.1,0.3-2.1,0.3-3.2c0-1-1.5-1.6-2-0.5
				c-0.5,1.1-0.9,2.2-1.2,3.4c-1.4-0.2-2.8-0.4-4.3-0.7c0.1-0.5,0.3-1,0.4-1.4c1.1-3.4,2.1-6.9,2.9-10.3c0.4-1.5-1.7-2-2.3-0.6
				c-1.2,3.1-2.3,6.3-3.3,9.5c-0.2,0.7-0.5,1.4-0.7,2.2c-0.9-0.2-1.8-0.4-2.6-0.7c1.1-5,2.2-9.9,3.5-14.8c1.1-3.8,2.5-7.5,3.6-11.3
				c0.2,0.1,0.5,0.2,0.7,0.3c-0.7,3.3-1,6.8-1.2,10.1c-0.1,1.3,1.9,1.5,2.2,0.3c0.7-3.1,1.7-6.3,2.4-9.5c0.2,0.1,0.5,0.1,0.7,0.1
				c0,0.6-0.1,1.2-0.1,1.8c-0.4,5.3-1.2,10.7-1,16c0.1,1.2,1.6,1.3,2,0.3c1.8-4.8,3.2-11.2,3.7-17.4c0.2,0,0.5,0,0.7,0.1
				C348.9,475.9,348.5,485.5,347.7,494C347.7,493.9,347.7,493.9,347.7,494z M324.2,473.2c-2.4,2.3-4.5,5-6.5,7.7
				c-0.6,0.7-1.4,1.6-2,2.6c-0.7-0.4-1.4-0.9-2.1-1.4c3.7-4.2,7.1-8.7,10.5-13.1c1.5-1.9,3-3.8,4.6-5.7c-1.1,2.4-2,5-3.1,7.4
				c-0.2,0.4,0.4,0.7,0.6,0.3c1.5-2.9,3.5-5,5.5-7.6c0.5-0.6,1-1.2,1.5-1.8c0.1,0.1,0.2,0.1,0.3,0.2c-2.6,3.2-4.4,7.2-6.5,10.8
				c-2.5,4.3-5.2,8.6-7.3,13.2c-0.3-0.2-0.6-0.3-0.9-0.5c0.6-0.8,1.1-1.7,1.5-2.4c1.8-2.9,3.5-5.8,4.9-8.9
				C325.4,473.3,324.7,472.7,324.2,473.2z M312.2,471.6c-2.1,1.1-4,2-6,3.5c-0.3,0.2-0.5,0.4-0.8,0.6c-0.2-0.2-0.5-0.4-0.7-0.7
				c4.2-2.7,8-6.4,11.7-9.4c2-1.6,4.2-3.2,6.4-4.9c-2,1.9-4.1,4-5,6.5c-0.3,0.8,0.7,1.3,1.3,1c1-0.4,1.8-1,2.7-1.7
				c-0.1,0.2-0.2,0.3-0.3,0.5c-3.4,4.4-7,8.9-10.2,13.5c-1.2-0.9-2.4-1.8-3.5-2.8c0.2-0.2,0.4-0.3,0.5-0.4c1.7-1.2,3.3-2.6,5-3.8
				C314.5,472.7,313.5,470.9,312.2,471.6z M301.6,458.6c-2.3,1.3-5,2.4-7.4,3.8c-1.5-2.2-2.8-4.5-4-6.9c1.5-1,3.1-1.9,4.4-3.1
				c0.5-0.5,0-1.3-0.7-1.2c-1.7,0.4-3.3,1.3-4.7,2.2c-0.4-0.9-0.8-1.7-1.2-2.6c1.1-0.4,2.2-0.8,3.2-1.3c1.8-0.8,3.9-1.6,5.3-3.1
				c0.7-0.8,0.5-2-0.3-2.5c2-0.9,3.9-1.9,5.8-2.8c3.9-1.9,8.1-3.8,11.9-6.1c0.1,0.6,0.3,1.2,0.5,1.8c-1.3,0.5-2.6,1.1-3.6,1.5
				c-4,1.6-8,3.3-11.4,6c-0.8,0.6,0.1,1.9,0.9,1.6c3.1-1,6-2.5,8.9-3.7c1.8-0.8,3.9-1.9,6.1-2.5c0.3,0.8,0.6,1.5,0.9,2.3
				c-3.6,1.3-7.1,4-10,5.8c-4.4,2.6-11,4.9-13,9.8c-0.3,0.8,0.5,1.5,1.1,1.5c4.5,0.3,8.8-3.9,12.4-6.3c3.4-2.2,7.1-5.6,10.8-7.9
				c0,0.1,0.1,0.2,0.1,0.3c-1.3,0.8-2.5,1.9-3.6,2.6c-2.5,1.8-5.5,3.8-7.2,6.4c-0.7,1.1,0.6,2.1,1.6,1.6c2.9-1.4,5.4-4,8-5.9
				c0.8-0.6,1.9-1.2,2.9-1.8c0.2,0.4,0.5,0.7,0.7,1.1c-3.9,2-7.4,4.7-11,7.2c-2.1,1.5-9,5.3-12.7,9.2c-0.3-0.4-0.6-0.8-0.9-1.2
				c2.5-1.2,4.9-3,7-4.6C303.2,459.2,302.3,458.2,301.6,458.6z M319.1,405.2c-0.4,0.6-0.8,1.3-1.2,2c-5.8-1-11.7-1.7-17.6-1.9
				c0.3-0.1,0.5-0.2,0.8-0.3c1.8-0.7,3.7-1.4,5.5-2.1C310.8,403.4,314.9,404.4,319.1,405.2z M311,401.3c1.2-0.4,2.5-0.8,3.7-1.2
				c1.6,0.4,3.1,0.9,4.7,1.4c0.6,0.2,1.2,0.4,1.9,0.6c-0.3,0.3-0.5,0.6-0.7,1C317.5,402.1,314.3,401.5,311,401.3z M309.4,411.2
				c0.3,0,0.6,0.1,0.9,0.1c-8.7,0.1-17.5,1.3-26,2c0.8-0.9,1.9-1.7,3.7-2.5c0.7-0.4,1.5-0.7,2.2-1
				C296.6,410.3,303,410.8,309.4,411.2z M297,415.3c-3.4,0.6-6.7,1.2-10,1.9c-0.4,0.1-0.3,0.7,0.1,0.7c7.2-0.3,14.4-1.3,21.6-2.5
				c2-0.1,3.9-0.2,5.9-0.3c-0.1,0.2-0.1,0.5-0.2,0.7c-10.5,0.4-21.3,2.1-31.7,3.6c0.1-1.9,0.3-3.4,0.8-4.5
				C287.8,414.9,292.4,415.1,297,415.3z M314,417.2c-0.1,0.3-0.1,0.5-0.2,0.8c-5.2,0.2-10.5,1.2-15.7,1.8c-5.2,0.6-10.5,1-15.6,2.3
				c0-0.3,0-0.6,0-0.9C293,420.1,303.8,419.5,314,417.2z M295.4,424.8c-1.5-0.5-3.1-0.7-4.8-0.7c3.5-0.4,7-1,10.4-1.4c0,0,0,0,0,0
				c-0.8,0.3-1.7,0.6-2.5,1c-0.8,0.4-0.4,1.6,0.4,1.6c4.8-0.1,9.5-1.7,14.2-2.6c0,0.1,0,0.1,0,0.2c-6.1,1.2-12.4,2.8-18.5,4.8
				c0.4-0.2,0.8-0.4,1.1-0.6C296.6,426.4,296.4,425.1,295.4,424.8z M285.1,424.5c-0.9,0.2-1.7,0.4-2.6,0.6c0-0.2,0-0.4,0-0.6
				C283.4,424.5,284.2,424.5,285.1,424.5z M288,429.8c-1.7,0.6-3.3,1.2-4.9,1.8c-0.1-0.4-0.1-0.9-0.2-1.3
				C284.5,430.3,286.2,430.1,288,429.8z M313,425.6c0,0.7,0,1.4,0,2.1c-8.9,1.6-18,5.9-26.1,9c-0.7,0.2-0.4,1.3,0.3,1.1
				c8.3-2.8,17.7-4.3,26-7.4c0,0.2,0.1,0.4,0.1,0.6c-4.2,1.4-8.5,2.9-12.7,4.3c-5.6,1.8-10.9,3.8-15.3,7.6c-0.8-2.8-1.4-5.6-1.9-8.4
				C293.3,432.2,303.6,429.3,313,425.6z M308.5,435.6c-2.1,1.1-4.2,2.2-6.3,3.2c-5.2,2.5-10.7,4.6-15.9,7.3
				c-0.2-0.4-0.3-0.9-0.4-1.3C293.5,441.8,301,438.6,308.5,435.6z M311.1,463.8c3.6-2.9,7.3-5.7,10.9-8.6c0.6-0.5,1.2-0.9,1.7-1.4
				c0.5,0.6,1.1,1.2,1.7,1.8c-3.6,2.7-6.9,6-10.3,8.7c-3.8,3-8.3,5.8-11.8,9.3c-0.6-0.6-1.2-1.2-1.8-1.8
				C305.4,469.3,309.6,464.9,311.1,463.8z M325.3,396.9c0.4-0.1,0.7-0.2,1.1-0.3c-0.2,0.1-0.3,0.3-0.5,0.5
				C325.7,397,325.5,396.9,325.3,396.9z M331.4,428.9c0-4.3,3.5-7.8,7.8-7.8c4.3,0,7.8,3.5,7.8,7.8c0,4.3-3.5,7.8-7.8,7.8
				C334.9,436.7,331.4,433.2,331.4,428.9z M329.4,474.1c1-1.6,2-3.3,3-5c-2.8,5.5-5.6,11-7.7,16.7c-0.4,1.1,1.2,1.6,1.7,0.7
				c3.7-5.6,6.8-11.6,9.9-17.5c0.7-1.4,1.6-2.8,2.4-4.2c-3.4,8.1-5.5,17.5-7.2,25.9c-3.4-1.1-6.7-2.4-10-4
				C324.5,482.8,326.9,478.4,329.4,474.1z M259,403.5c2-1.2,4-2.4,6-3.6c-2.6,4.9-3.2,11.5-0.9,16.4c-1.4,1.1-2.7,2.3-4,3.5
				c-0.9-3-2.2-5.9-2.4-9.2C257.4,407.9,258.3,405.7,259,403.5z M251.5,407.9c0.7-0.4,1.3-0.8,2-1.2c-0.5,5.2,1.4,11.8,3.9,15.4
				c-1.1,1.1-2.2,2.2-3.3,3.3c-0.8-2.5-2.2-5.2-2.7-7.3C250.7,414.5,250.9,411.2,251.5,407.9z M397.6,502.6
				c-49.3,12.5-95-3.6-138.6-26.1c-7.5-3.9-14.9-8-22.5-11.9c-0.3-0.4-0.6-0.7-0.8-1.2c-1.3-2.3-1.8-5-2.1-7.5
				c-0.4-3.4-0.3-6.7-0.3-10.1c2.1-0.6,4.1-1.2,6.1-2c-0.3,3.6,0.4,7.1,2.6,10c0.2,0.3,0.9,0.3,0.9-0.2c-0.4-3.7-0.9-7.4-0.2-11.1
				c5.4-2.4,10.5-5.6,14.9-9.9c5.4-5.3,11.1-10.2,17.1-14.7c-0.1,2.8,0.1,5.6,0.1,7.8c0.2,7.3,1.4,14.7,3.7,21.7
				c4.3,13.5,12.3,25.8,23,35.1c21.6,18.9,52.6,24.7,79.5,14.5c8.8-3.3,16.7-8.2,23.5-14.1c0.4-0.2,0.8-0.4,1.2-0.6
				c0.6-0.4,1-1,1.3-1.6c15.3-14.6,24.5-35.1,24.8-57.1c-0.1-4.9-0.7-10.2-1.8-15.2c10.4,5.5,20.8,10.9,31.2,16.5
				c0.4,0.7,0.8,1.5,1,2.2c1.4,4.2,1.3,8.5,0.7,12.9c-0.2,1.4,1.7,2.6,2.5,1.1c2.1-4.1,2.3-8.7,1.3-13.2c1,0.5,1.9,1,2.9,1.5
				c0.1,0.1,0.2,0.1,0.3,0.2c0,0.1,0.1,0.2,0.1,0.2c3.7,5.2,2.6,13.4,2.1,19.5c-0.6,7.7-2.7,14.4-5.7,21.3
				c-3.6,2.6-7.4,5.1-11.3,7.5C437.2,488.8,417.9,497.4,397.6,502.6z M416.7,507.5c-0.6,1-1.4,1.9-2.1,2.8c-2.3,1.1-4.6,2.1-6.9,3.2
				c0.1-0.7,0.1-1.3,0.1-1.9c0-1.3-0.1-2.5-0.7-3.6c3.8-1.1,7.5-2.4,11.2-3.7C417.9,505.3,417.4,506.4,416.7,507.5z M427.5,501.8
				c-0.8,1.4-1.9,2.6-2.9,3.8c-1,0.5-2,0.9-3,1.4c0.8-1.6,1.5-3.2,2-4.8c1.6-0.6,3.2-1.3,4.7-1.9
				C428.1,500.8,427.8,501.3,427.5,501.8z M441.4,497.7C441.4,497.7,441.4,497.7,441.4,497.7c-3.2,1.5-6.3,3-9.4,4.4
				c0.8-1.4,1.4-2.8,1.8-4.3c3.1-1.4,6.1-2.9,9.1-4.4C442.4,495,442.1,496.5,441.4,497.7z"/>
		</g>
	</g>
</g>
</svg>
