<svg xmlns="http://www.w3.org/2000/svg" viewBox="0 0 495 495">
  <title>shop_Artboard 1</title>
  <g id="cart" >
    <circle cx="290.5" cy="326.2" r="22.3" />
    <circle cx="201.2" cy="326.2" r="22.3" />
    <path d="M329.6,180.3a4.27,4.27,0,0,0-3.3-1.5H165.5a4.48,4.48,0,0,0-4.5,4.5,2.77,2.77,0,0,0,.1.9L179,273.5a4.49,4.49,0,0,0,4.4,3.6h.6l134-17.9a4.46,4.46,0,0,0,3.8-3.9l8.9-71.5A4.25,4.25,0,0,0,329.6,180.3Z" />
    <path d="M308.4,294.9H205.3a31.36,31.36,0,0,1-30.7-25.1L152.8,160.9H129.7a4.5,4.5,0,1,1,0-9h26.8a4.49,4.49,0,0,1,4.4,3.6L183.4,268a22.56,22.56,0,0,0,21.9,18H308.4a4.48,4.48,0,0,1,4.5,4.5A4.4,4.4,0,0,1,308.4,294.9Z" />
  </g>
  <g id="mid">
    <path d="M201.2,259.2a4.5,4.5,0,0,1-4.4-3.7l-8.9-53.6a4.46,4.46,0,0,1,8.8-1.4l8.9,53.6a4.42,4.42,0,0,1-3.7,5.1Z" fill="#fafafa"/>
    <path d="M223.5,254.7a4.55,4.55,0,0,1-4.5-4.1l-4.5-49.1a4.55,4.55,0,0,1,4-4.9h0a4.55,4.55,0,0,1,4.9,4h0l4.5,49.1a4.55,4.55,0,0,1-4,4.9h0Z" fill="#fafafa"/>
    <path d="M245.9,250.3a4.48,4.48,0,0,1-4.5-4.5V201.1a4.5,4.5,0,0,1,9,0v44.7A4.61,4.61,0,0,1,245.9,250.3Z" fill="#fafafa"/>
    <path d="M268.2,245.8h-.5a4.54,4.54,0,0,1-4-4.9h0l4.5-40.2a4.58,4.58,0,0,1,5-4,4.39,4.39,0,0,1,3.9,4.9h0l-4.5,40.2A4.37,4.37,0,0,1,268.2,245.8Z" fill="#fafafa"/>
    <path d="M290.5,241.3a4.48,4.48,0,0,1-4.5-4.5,4.1,4.1,0,0,1,.1-1.1L295,200a4.45,4.45,0,0,1,8.7,1.9c0,.1,0,.1-.1.2l-8.9,35.7A4.12,4.12,0,0,1,290.5,241.3Z" fill="#fafafa"/>
  </g>
    <g id="right">
    <polygon points="247.5 0 247.5 40 455 40 455 455 247.5 455 247.5 495 495 495 495 0 247.5 0" />
  </g>
    <g id="left">
      <polygon points="40 455 40 40 247.5 40 247.5 0 0 0 0 495 247.5 495 247.5 455 40 455" /></g></svg>
